<svg xmlns="http://www.w3.org/2000/svg" width="48.129" height="49" viewBox="0 0 48.129 49">
  <g id="Grupo_136" data-name="Grupo 136" transform="translate(-606.935 -3334)">
    <g id="Grupo_135" data-name="Grupo 135" transform="translate(-546.065 1597)">
      <g id="Grupo_114" data-name="Grupo 114" transform="translate(1154 1738)">
        <path id="Caminho_13" data-name="Caminho 13" d="M119.7,39.73s-1.233-2.859-3.958-2.859-3.967,2.859-3.967,2.859" transform="translate(-110.08 -36.871)" fill="none" stroke="#957841" stroke-linecap="round" stroke-miterlimit="10" stroke-width="2"/>
        <path id="Caminho_14" data-name="Caminho 14" d="M111.305,58.775V95.188s.247,4.219,4.081,4.219a3.789,3.789,0,0,0,3.734-2.7,5.889,5.889,0,0,0,.346-2.041V58.775" transform="translate(-109.728 -52.407)" fill="none" stroke="#957841" stroke-linecap="round" stroke-miterlimit="10" stroke-width="2"/>
        <rect id="Retângulo_36" data-name="Retângulo 36" width="11.315" height="2.639" transform="translate(0 3.73)" fill="none" stroke="#957841" stroke-linecap="round" stroke-miterlimit="10" stroke-width="2"/>
        <line id="Linha_1" data-name="Linha 1" x2="2.169" transform="translate(1.577 16.895)" fill="none" stroke="#957841" stroke-linecap="round" stroke-miterlimit="10" stroke-width="2"/>
        <line id="Linha_2" data-name="Linha 2" x2="4.191" transform="translate(1.577 20.415)" fill="none" stroke="#957841" stroke-linecap="round" stroke-miterlimit="10" stroke-width="2"/>
        <line id="Linha_3" data-name="Linha 3" x2="8.162" transform="translate(1.577 33.299)" fill="none" stroke="#957841" stroke-linecap="round" stroke-miterlimit="10" stroke-width="2"/>
        <line id="Linha_4" data-name="Linha 4" x2="4.191" transform="translate(1.577 28.335)" fill="none" stroke="#957841" stroke-linecap="round" stroke-miterlimit="10" stroke-width="2"/>
        <line id="Linha_5" data-name="Linha 5" x2="2.169" transform="translate(1.577 24.815)" fill="none" stroke="#957841" stroke-linecap="round" stroke-miterlimit="10" stroke-width="2"/>
      </g>
      <g id="Grupo_132" data-name="Grupo 132" transform="translate(1188.815 1738)">
        <path id="Caminho_13-2" data-name="Caminho 13" d="M119.7,39.73s-1.233-2.859-3.958-2.859-3.967,2.859-3.967,2.859" transform="translate(-110.08 -36.871)" fill="none" stroke="#957841" stroke-linecap="round" stroke-miterlimit="10" stroke-width="2"/>
        <path id="Caminho_14-2" data-name="Caminho 14" d="M111.305,58.775V95.188s.247,4.219,4.081,4.219a3.789,3.789,0,0,0,3.734-2.7,5.889,5.889,0,0,0,.346-2.041V58.775" transform="translate(-109.728 -52.407)" fill="none" stroke="#957841" stroke-linecap="round" stroke-miterlimit="10" stroke-width="2"/>
        <rect id="Retângulo_36-2" data-name="Retângulo 36" width="11.315" height="2.639" transform="translate(0 3.73)" fill="none" stroke="#957841" stroke-linecap="round" stroke-miterlimit="10" stroke-width="2"/>
        <line id="Linha_1-2" data-name="Linha 1" x2="2.169" transform="translate(1.577 16.895)" fill="none" stroke="#957841" stroke-linecap="round" stroke-miterlimit="10" stroke-width="2"/>
        <line id="Linha_2-2" data-name="Linha 2" x2="4.191" transform="translate(1.577 20.415)" fill="none" stroke="#957841" stroke-linecap="round" stroke-miterlimit="10" stroke-width="2"/>
        <line id="Linha_3-2" data-name="Linha 3" x2="8.162" transform="translate(1.577 33.299)" fill="none" stroke="#957841" stroke-linecap="round" stroke-miterlimit="10" stroke-width="2"/>
        <line id="Linha_4-2" data-name="Linha 4" x2="4.191" transform="translate(1.577 28.335)" fill="none" stroke="#957841" stroke-linecap="round" stroke-miterlimit="10" stroke-width="2"/>
        <line id="Linha_5-2" data-name="Linha 5" x2="2.169" transform="translate(1.577 24.815)" fill="none" stroke="#957841" stroke-linecap="round" stroke-miterlimit="10" stroke-width="2"/>
      </g>
      <g id="Grupo_131" data-name="Grupo 131" transform="translate(1171.407 1738)">
        <path id="Caminho_13-3" data-name="Caminho 13" d="M119.7,39.73s-1.233-2.859-3.958-2.859-3.967,2.859-3.967,2.859" transform="translate(-110.08 -36.871)" fill="none" stroke="#957841" stroke-linecap="round" stroke-miterlimit="10" stroke-width="2"/>
        <path id="Caminho_14-3" data-name="Caminho 14" d="M111.305,58.775V95.188s.247,4.219,4.081,4.219a3.789,3.789,0,0,0,3.734-2.7,5.889,5.889,0,0,0,.346-2.041V58.775" transform="translate(-109.728 -52.407)" fill="none" stroke="#957841" stroke-linecap="round" stroke-miterlimit="10" stroke-width="2"/>
        <rect id="Retângulo_36-3" data-name="Retângulo 36" width="11.315" height="2.639" transform="translate(0 3.73)" fill="none" stroke="#957841" stroke-linecap="round" stroke-miterlimit="10" stroke-width="2"/>
        <line id="Linha_1-3" data-name="Linha 1" x2="2.169" transform="translate(1.577 16.895)" fill="none" stroke="#957841" stroke-linecap="round" stroke-miterlimit="10" stroke-width="2"/>
        <line id="Linha_2-3" data-name="Linha 2" x2="4.191" transform="translate(1.577 20.415)" fill="none" stroke="#957841" stroke-linecap="round" stroke-miterlimit="10" stroke-width="2"/>
        <line id="Linha_3-3" data-name="Linha 3" x2="8.162" transform="translate(1.577 20.415)" fill="none" stroke="#957841" stroke-linecap="round" stroke-miterlimit="10" stroke-width="2"/>
      </g>
    </g>
  </g>
</svg>
