<svg xmlns="http://www.w3.org/2000/svg" width="48" height="48" viewBox="0 0 48 48">
  <g id="Grupo_50" data-name="Grupo 50" transform="translate(-568.512 -1706.29)">
    <g id="Grupo_43" data-name="Grupo 43" transform="translate(569.512 1707.29)">
      <g id="Grupo_42" data-name="Grupo 42" transform="translate(0 0)">
        <path id="Caminho_8" data-name="Caminho 8" d="M62.723,62.427V50.992a5.828,5.828,0,0,1,5.836-5.82h0a5.828,5.828,0,0,1,5.836,5.82V62.427H85.723a5.828,5.828,0,0,1,5.836,5.82h0a5.828,5.828,0,0,1-5.836,5.82H74.4V85.351a5.828,5.828,0,0,1-5.836,5.821h0a5.828,5.828,0,0,1-5.836-5.821V74.068H51.4a5.828,5.828,0,0,1-5.836-5.82h0A5.829,5.829,0,0,1,51.4,62.427Z" transform="translate(-45.559 -45.172)" fill="none" stroke="#957841" stroke-linecap="round" stroke-miterlimit="10" stroke-width="2"/>
        <path id="Caminho_9" data-name="Caminho 9" d="M54.793,64.684s2.025-5.5,9.833-9.834" transform="translate(-52.218 -52.151)" fill="none" stroke="#957841" stroke-linecap="round" stroke-miterlimit="10" stroke-width="2"/>
        <path id="Caminho_10" data-name="Caminho 10" d="M165.942,54.851s5.5,2.025,9.834,9.833" transform="translate(-132.35 -52.152)" fill="none" stroke="#957841" stroke-linecap="round" stroke-miterlimit="10" stroke-width="2"/>
        <path id="Caminho_11" data-name="Caminho 11" d="M175.775,166s-2.025,5.5-9.833,9.834" transform="translate(-132.35 -132.409)" fill="none" stroke="#957841" stroke-linecap="round" stroke-miterlimit="10" stroke-width="2"/>
        <path id="Caminho_12" data-name="Caminho 12" d="M64.625,175.833s-5.5-2.024-9.834-9.833" transform="translate(-52.217 -132.409)" fill="none" stroke="#957841" stroke-linecap="round" stroke-miterlimit="10" stroke-width="2"/>
      </g>
    </g>
  </g>
</svg>
