<svg xmlns="http://www.w3.org/2000/svg" width="903" height="903" viewBox="0 0 903 903">
  <path id="Caminho_5" data-name="Caminho 5" d="M3668.875,2743.37a122.916,122.916,0,0,1-42.789,28.205,137.621,137.621,0,0,1-99.038.02q-23.788-9.208-43.379-28.767L3307,2566.43l-.419.43-73.466-73.362-83.669-83.527-15.041-14.992q-21.252-21.224-41.391-21.211t-35.243,15.076q-15.125,15.093-15.109,35.2,0,20.091,21.258,41.331l83.029,82.879,86.113,85.966,15.01,14.984q21.277,21.23,41.406,21.234t35.237-15.072v-.023l57.08,56.971h0a123.384,123.384,0,0,1-42.815,28.23,137.674,137.674,0,0,1-99.014,0q-23.786-9.208-43.377-28.771l-20.625-20.581-86.082-85.965-88.622-88.47q-19.6-19.543-29.1-43.008a129.35,129.35,0,0,1-9.5-49.158,133.509,133.509,0,0,1,9.5-49.716,126.125,126.125,0,0,1,28.545-43,123.249,123.249,0,0,1,42.407-28.035L2930.6,2191.5l57.066-56.971,198.238,197.9,20.608,20.57,83.668,83.522,18.464,18.45.427-.423,226.086,225.709q21.266,21.23,41.409,21.23T3611.8,2686.4q15.128-15.07,15.117-35.184t-21.256-41.331l-279.814-279.343.425-.427-230.385-230.006q-19.593-19.543-29.093-43.012a129.7,129.7,0,0,1-9.517-49.143,133.824,133.824,0,0,1,9.517-49.711,125.953,125.953,0,0,1,28.544-43.02,122.962,122.962,0,0,1,42.8-28.207,137.674,137.674,0,0,1,99.025,0q23.784,9.2,43.377,28.772L3457.2,2092.158l.425-.427,73.483,73.361,83.664,83.524,15.009,14.992q21.286,21.259,41.407,21.234,20.153,0,35.243-15.076,15.125-15.093,15.115-35.2t-21.256-41.334l-83.021-82.875-86.113-85.967-15.026-15q-21.276-21.236-41.406-21.214-20.111,0-35.237,15.076h0l-57.074-56.974h0a123.362,123.362,0,0,1,42.815-28.208,137.7,137.7,0,0,1,99.016,0q23.774,9.208,43.369,28.768l20.624,20.585,86.106,85.945,88.62,88.486q19.57,19.543,29.085,43.013a129.678,129.678,0,0,1,9.511,49.143,133.873,133.873,0,0,1-9.511,49.707,126.1,126.1,0,0,1-28.544,43.027,123.254,123.254,0,0,1-42.4,28.035L3833.6,2467.1l-57.066,56.974-198.228-197.9-20.6-20.581-83.66-83.53-18.48-18.432-.409.427-226.1-225.709q-21.277-21.259-41.416-21.233-20.138,0-35.234,15.076-15.124,15.093-15.118,35.2t21.266,41.338l279.814,279.344-.426.423,230.387,229.99q19.578,19.572,29.092,43.008a129.853,129.853,0,0,1,9.52,49.162,133.625,133.625,0,0,1-9.52,49.71A125.807,125.807,0,0,1,3668.875,2743.37Z" transform="translate(-2930.603 -1877.803)" fill="#d7c891" opacity="0.15"/>
</svg>
