<svg xmlns="http://www.w3.org/2000/svg" width="48" height="48" viewBox="0 0 48 48">
  <g id="Grupo_238" data-name="Grupo 238" transform="translate(-183 -1447)">
    <path id="Caminho_259" data-name="Caminho 259" d="M62.723,62.427V50.992a5.828,5.828,0,0,1,5.836-5.82h0a5.828,5.828,0,0,1,5.836,5.82V62.427H85.723a5.828,5.828,0,0,1,5.836,5.82h0a5.828,5.828,0,0,1-5.836,5.82H74.4V85.351a5.828,5.828,0,0,1-5.836,5.821h0a5.828,5.828,0,0,1-5.836-5.821V74.068H51.4a5.828,5.828,0,0,1-5.836-5.82h0A5.829,5.829,0,0,1,51.4,62.427Z" transform="translate(138.441 1402.828)" fill="none" stroke="#957841" stroke-linecap="round" stroke-miterlimit="10" stroke-width="2"/>
    <path id="Caminho_260" data-name="Caminho 260" d="M54.793,64.684s2.025-5.5,9.833-9.834" transform="translate(131.781 1395.849)" fill="none" stroke="#957841" stroke-linecap="round" stroke-miterlimit="10" stroke-width="2"/>
    <path id="Caminho_261" data-name="Caminho 261" d="M165.942,54.851s5.5,2.025,9.834,9.833" transform="translate(51.648 1395.848)" fill="none" stroke="#957841" stroke-linecap="round" stroke-miterlimit="10" stroke-width="2"/>
    <path id="Caminho_262" data-name="Caminho 262" d="M175.775,166s-2.025,5.5-9.833,9.834" transform="translate(51.648 1315.591)" fill="none" stroke="#957841" stroke-linecap="round" stroke-miterlimit="10" stroke-width="2"/>
    <path id="Caminho_263" data-name="Caminho 263" d="M64.625,175.833s-5.5-2.024-9.834-9.833" transform="translate(131.783 1315.591)" fill="none" stroke="#957841" stroke-linecap="round" stroke-miterlimit="10" stroke-width="2"/>
  </g>
</svg>
