<svg xmlns="http://www.w3.org/2000/svg" xmlns:xlink="http://www.w3.org/1999/xlink" width="150" height="150" viewBox="0 0 150 150"><defs><clipPath id="b"><rect width="150" height="150"/></clipPath></defs><g id="a" clip-path="url(#b)"><rect width="150" height="150" fill="transparent"/><g transform="translate(-186 -2127)"><path d="M101.56,40.672a18.712,18.712,0,0,1,18.71,18.671V82.685h23.079a18.672,18.672,0,1,1,0,37.343h-23.08V143a18.71,18.71,0,0,1-37.42,0V120.028H59.769a18.672,18.672,0,1,1,0-37.343H82.849V59.343A18.712,18.712,0,0,1,101.56,40.672Zm41.789,70.356a9.672,9.672,0,1,0,0-19.343H115.769a4.5,4.5,0,0,1-4.5-4.5V59.343a9.71,9.71,0,0,0-19.42,0v27.84a4.5,4.5,0,0,1-4.5,4.5H59.769a9.672,9.672,0,1,0,0,19.343h27.58a4.5,4.5,0,0,1,4.5,4.5V143a9.71,9.71,0,0,0,19.42,0V115.528a4.5,4.5,0,0,1,4.5-4.5Z" transform="translate(159.441 2100.828)" fill="#957841"/><path d="M54.793,83.294a4.5,4.5,0,0,1-4.223-6.055c.225-.611,5.74-15.1,25.984-26.325a4.5,4.5,0,1,1,4.364,7.871C63.569,68.4,59.06,80.228,59.016,80.346A4.5,4.5,0,0,1,54.793,83.294Z" transform="translate(156.476 2097.72)" fill="#957841"/><path d="M189.89,83.294a4.5,4.5,0,0,1-3.94-2.319c-9.491-17.118-21.47-21.866-21.59-21.912a4.5,4.5,0,0,1,3.135-8.436c.611.225,15.1,5.74,26.326,25.984a4.5,4.5,0,0,1-3.931,6.683Z" transform="translate(120.846 2097.72)" fill="#957841"/><path d="M165.946,194.444a4.5,4.5,0,0,1-2.186-8.436c17.117-9.491,21.866-21.47,21.912-21.59a4.5,4.5,0,0,1,8.436,3.135c-.225.611-5.74,15.1-25.984,26.326A4.48,4.48,0,0,1,165.946,194.444Z" transform="translate(120.846 2061.785)" fill="#957841"/><path d="M78.729,194.443a4.474,4.474,0,0,1-1.547-.277c-.611-.225-15.1-5.739-26.326-25.984a4.5,4.5,0,0,1,7.871-4.364c9.491,17.118,21.47,21.865,21.59,21.911a4.5,4.5,0,0,1-1.587,8.713Z" transform="translate(156.477 2061.785)" fill="#957841"/></g></g></svg>