<svg xmlns="http://www.w3.org/2000/svg" width="48" height="48" viewBox="0 0 48 48">
    <path data-name="Path 8" d="M62.723 62.427V50.992a5.828 5.828 0 0 1 5.836-5.82h0a5.828 5.828 0 0 1 5.836 5.82v11.435h11.328a5.828 5.828 0 0 1 5.836 5.82h0a5.828 5.828 0 0 1-5.836 5.82H74.4v11.284a5.828 5.828 0 0 1-5.836 5.821h0a5.828 5.828 0 0 1-5.836-5.821V74.068H51.4a5.828 5.828 0 0 1-5.836-5.82h0a5.829 5.829 0 0 1 5.836-5.821z" transform="translate(-44.559 -44.172)" style="fill:none;stroke:#fff;stroke-linecap:round;stroke-miterlimit:10;stroke-width:2px"/>
</svg>
