<svg xmlns="http://www.w3.org/2000/svg" xmlns:xlink="http://www.w3.org/1999/xlink" width="150" height="150" viewBox="0 0 150 150"><defs><clipPath id="b"><rect width="150" height="150"/></clipPath></defs><g id="a" clip-path="url(#b)"><rect width="150" height="150" fill="transparent"/><path d="M9.554,62.717c1.791,3.769,4.242,8.93,4.394,11.322.827,13,2.932,30.232,8.264,38.51.215.334.444.707.688,1.1,1.829,2.973,4.333,7.046,8.14,7.5a5.634,5.634,0,0,0,.663.04,6.63,6.63,0,0,0,4.737-2.174c2.957-2.944,3.528-7.5,3.987-11.155.089-.715.175-1.4.277-2.041.563-3.559.78-6.484.987-9.313A53.055,53.055,0,0,1,44.1,82.461c1.227-3.752,2.556-4.351,3.811-4.438.075-.006.146-.027.221-.038.074.01.144.032.221.038,1.254.086,2.583.686,3.81,4.438a53.055,53.055,0,0,1,2.413,14.048c.208,2.829.423,5.752.987,9.313.1.639.187,1.326.277,2.041.459,3.658,1.03,8.213,3.987,11.156a6.629,6.629,0,0,0,4.736,2.173,5.677,5.677,0,0,0,.664-.039c3.807-.453,6.311-4.524,8.14-7.5.243-.4.472-.769.689-1.1,5.332-8.277,7.438-25.512,8.264-38.51.152-2.391,2.6-7.552,4.394-11.322,1.041-2.192,1.94-4.087,2.478-5.534C94.365,43.25,103.989,17.313,85.031,4,80.245.636,73.714-.668,66.641.323a80.938,80.938,0,0,0-9.471,2.015,45.526,45.526,0,0,1-8.8,1.684c-.081.006-.158.027-.239.04-.081-.012-.158-.034-.241-.039a45.672,45.672,0,0,1-8.8-1.684A81.481,81.481,0,0,0,29.626.324C22.554-.668,16.025.637,11.242,4-7.718,17.312,1.907,43.249,7.079,57.183c.536,1.449,1.435,3.343,2.476,5.534ZM14.336,8.405C18,5.833,23.164,4.859,28.881,5.657a75.848,75.848,0,0,1,8.867,1.894A50.265,50.265,0,0,0,47.563,9.4a2.678,2.678,0,0,0,.571-.027,2.7,2.7,0,0,0,.574.027,50.518,50.518,0,0,0,9.815-1.846,75.625,75.625,0,0,1,8.867-1.894c5.718-.8,10.882.175,14.545,2.748,13.675,9.6,9.144,28.219,2.21,46.9-.455,1.226-1.348,3.106-2.293,5.1-2.2,4.625-4.686,9.867-4.9,13.291-1.111,17.474-3.746,30.236-7.416,35.935-.234.364-.484.769-.749,1.2-.889,1.445-2.968,4.826-4.187,4.972-.2.022-.568-.208-.966-.6-1.643-1.634-2.067-5.021-2.441-8.008-.1-.776-.192-1.522-.3-2.215-.529-3.336-.736-6.146-.936-8.864a58.212,58.212,0,0,0-2.665-15.325c-.623-1.91-2.522-7.72-8.558-8.139a2.708,2.708,0,0,0-.588.028,2.609,2.609,0,0,0-.6-.028c-6.035.419-7.934,6.229-8.558,8.139a58.22,58.22,0,0,0-2.665,15.325c-.2,2.718-.407,5.528-.936,8.864-.109.692-.2,1.44-.3,2.215-.375,2.987-.8,6.372-2.441,8.006-.4.4-.773.627-.966.6-1.22-.144-3.3-3.527-4.187-4.972-.265-.431-.515-.836-.749-1.2-3.672-5.7-6.306-18.461-7.416-35.935-.218-3.424-2.707-8.666-4.9-13.291-.945-1.991-1.838-3.872-2.293-5.1-6.94-18.685-11.472-37.3,2.2-46.9Z" transform="translate(27.055 14.417)" fill="#957841"/><path d="M64.566,123.192a8.609,8.609,0,0,1-6.147-2.756,13.891,13.891,0,0,1-3.439-6.168,39.491,39.491,0,0,1-1.121-6.153l-.013-.1c-.084-.668-.164-1.3-.255-1.874-.579-3.654-.8-6.616-1.006-9.48a51.41,51.41,0,0,0-2.319-13.574A7.041,7.041,0,0,0,48.872,80.3a.859.859,0,0,0-.652-.277h-.012l-.071-.006-.067.006h-.014a.863.863,0,0,0-.655.278,7.039,7.039,0,0,0-1.394,2.786,51.41,51.41,0,0,0-2.319,13.573c-.2,2.721-.426,5.806-1.006,9.478-.1.6-.178,1.255-.264,1.948l0,.028a39.507,39.507,0,0,1-1.121,6.156,13.9,13.9,0,0,1-3.439,6.168,8.611,8.611,0,0,1-6.148,2.757,7.667,7.667,0,0,1-.9-.054A9.74,9.74,0,0,1,24.76,119.7a32.273,32.273,0,0,1-3.559-5l-.058-.094c-.218-.354-.424-.687-.613-.98-2.538-3.94-4.592-10.064-6.106-18.2a180.937,180.937,0,0,1-2.472-21.264,16.553,16.553,0,0,0-1.433-4.5c-.84-2.022-1.91-4.276-2.771-6.086L6.39,60.717h.016c-.482-1.053-.893-2-1.2-2.84C3.916,54.411,2.314,50.094.96,45.424A71.3,71.3,0,0,1-1.884,30.5,36.382,36.382,0,0,1-.009,15.267a27.157,27.157,0,0,1,10.1-12.908A25.873,25.873,0,0,1,25.081-2a34.859,34.859,0,0,1,4.823.343A82.842,82.842,0,0,1,39.556.391l.1.025a43.9,43.9,0,0,0,8.365,1.61h.01l.1.009.108-.01h.014A44.063,44.063,0,0,0,56.67.4a82.49,82.49,0,0,1,9.695-2.059A34.871,34.871,0,0,1,71.184-2a25.89,25.89,0,0,1,15,4.361,27.157,27.157,0,0,1,10.1,12.907A36.384,36.384,0,0,1,98.156,30.5a71.3,71.3,0,0,1-2.844,14.928c-1.354,4.669-2.955,8.987-4.243,12.456-.567,1.527-1.481,3.452-2.538,5.68l-.008.017c-.861,1.811-1.931,4.064-2.771,6.087a16.558,16.558,0,0,0-1.433,4.5,180.921,180.921,0,0,1-2.472,21.265c-1.514,8.138-3.569,14.262-6.107,18.2l0,0c-.191.294-.4.634-.621.994l-.042.069a32.252,32.252,0,0,1-3.56,5,9.742,9.742,0,0,1-6.047,3.436A7.729,7.729,0,0,1,64.566,123.192ZM48.591,76.035a4.818,4.818,0,0,1,3.08,1.4,10.614,10.614,0,0,1,2.4,4.4,54.656,54.656,0,0,1,2.507,14.523c.2,2.782.415,5.659.968,9.146.1.639.185,1.3.273,2l.013.1c.422,3.358.945,7.532,3.414,9.988a4.738,4.738,0,0,0,3.325,1.591,3.7,3.7,0,0,0,.43-.026c2.844-.338,5.055-3.934,6.669-6.56l.043-.069c.233-.379.453-.737.669-1.069h0c2.256-3.5,4.119-9.142,5.537-16.767a176.966,176.966,0,0,0,2.413-20.787c.164-2.571,2.173-6.98,4.583-12.053l.008-.016c1.017-2.143,1.9-3.994,2.4-5.355,2.61-7.033,6.184-16.665,6.846-26.268a32.445,32.445,0,0,0-1.634-13.557,22.743,22.743,0,0,0-3.255-5.913,24.511,24.511,0,0,0-5.4-5.117A21.931,21.931,0,0,0,71.184,2a30.861,30.861,0,0,0-4.265.3,79.188,79.188,0,0,0-9.247,1.97,47.417,47.417,0,0,1-9.085,1.739l-.127.023-.312.051-.313-.047c-.058-.009-.109-.018-.147-.026a47.222,47.222,0,0,1-9.036-1.724l-.1-.025A79.536,79.536,0,0,0,29.349,2.3,30.847,30.847,0,0,0,25.081,2a21.915,21.915,0,0,0-12.69,3.633,24.512,24.512,0,0,0-5.4,5.117A22.742,22.742,0,0,0,3.74,16.662,32.443,32.443,0,0,0,2.106,30.22c.663,9.6,4.237,19.235,6.848,26.267.508,1.373,1.388,3.226,2.407,5.372l1.358,2.858H12.7c1.776,3.851,3.109,7.121,3.241,9.195A176.982,176.982,0,0,0,18.357,94.7c1.418,7.624,3.281,13.266,5.537,16.768.21.326.425.675.654,1.046l.06.1c1.614,2.624,3.825,6.217,6.669,6.556a3.652,3.652,0,0,0,.427.026,4.739,4.739,0,0,0,3.325-1.592c2.469-2.458,2.993-6.631,3.414-9.985l0-.028c.091-.729.177-1.418.283-2.082.554-3.5.764-6.37.967-9.142A54.656,54.656,0,0,1,42.2,81.84a10.612,10.612,0,0,1,2.4-4.4,4.823,4.823,0,0,1,3.08-1.4c.046-.009.109-.021.181-.031l.276-.038.276.039C48.484,76.014,48.545,76.026,48.591,76.035ZM31.709,117.8a2.238,2.238,0,0,1-.26-.015c-1.834-.216-3.4-2.241-5.653-5.9l0-.008c-.241-.393-.5-.806-.725-1.162-1.962-3.046-3.626-7.834-4.947-14.232a166.9,166.9,0,0,1-2.785-22.661c-.194-3.043-2.7-8.32-4.714-12.56l-.013-.027c-.959-2.021-1.865-3.93-2.348-5.231-2.043-5.5-3.494-9.966-4.566-14.05A61.792,61.792,0,0,1,3.505,28.523,28.748,28.748,0,0,1,5.4,16.4a21.645,21.645,0,0,1,7.371-9.33l.005-.01.414-.291A20.539,20.539,0,0,1,25.074,3.386a29.68,29.68,0,0,1,4.083.29,77.416,77.416,0,0,1,9.091,1.939A48.7,48.7,0,0,0,47.686,7.4a.682.682,0,0,0,.147-.008l.3-.046.3.046a.7.7,0,0,0,.151.008A48.871,48.871,0,0,0,58,5.62l.06-.015a76.951,76.951,0,0,1,9.052-1.929,29.631,29.631,0,0,1,4.09-.292A20.521,20.521,0,0,1,83.084,6.769a21.727,21.727,0,0,1,7.79,9.63,28.752,28.752,0,0,1,1.892,12.124,61.807,61.807,0,0,1-2.185,13.433c-1.071,4.083-2.521,8.547-4.563,14.05-.488,1.313-1.4,3.229-2.361,5.258l0,.007c-2.013,4.239-4.518,9.514-4.711,12.553a166.965,166.965,0,0,1-2.786,22.66c-1.321,6.4-2.984,11.186-4.945,14.231-.227.353-.481.765-.727,1.165-2.254,3.664-3.822,5.69-5.653,5.909l-.027,0a2.27,2.27,0,0,1-.237.012,3.384,3.384,0,0,1-2.349-1.187c-2.132-2.12-2.6-5.869-3.014-9.177-.094-.753-.187-1.483-.292-2.153-.541-3.415-.751-6.267-.954-9.025l1.994-.152-1.995.147A56.554,56.554,0,0,0,55.387,81.41a13.727,13.727,0,0,0-1.948-4.05A6.338,6.338,0,0,0,48.6,74.645a.747.747,0,0,0-.152.01l-.3.046-.3-.047a.661.661,0,0,0-.142-.01h-.009a6.338,6.338,0,0,0-4.846,2.715,13.733,13.733,0,0,0-1.949,4.05,56.556,56.556,0,0,0-2.571,14.847c-.2,2.754-.41,5.6-.955,9.034-.1.655-.194,1.374-.29,2.136l0,.024c-.415,3.3-.885,7.048-3.014,9.166A3.394,3.394,0,0,1,31.709,117.8ZM15.566,9.986l-.081.057A17.552,17.552,0,0,0,9.1,17.918,24.866,24.866,0,0,0,7.5,28.381c.3,8.545,3.636,18.508,6.505,26.233.422,1.137,1.292,2.969,2.212,4.908l.013.027c2.273,4.786,4.851,10.211,5.093,14.022a162.969,162.969,0,0,0,2.71,22.106c1.2,5.83,2.722,10.282,4.391,12.873.251.39.519.824.772,1.235l0,.007c.391.636.982,1.6,1.621,2.486.322.448.584.777.792,1.017.867-1.4,1.207-4.11,1.488-6.343l0-.025c.1-.793.194-1.542.307-2.26.519-3.272.721-6.031.917-8.7a59.873,59.873,0,0,1,2.758-15.8,17.594,17.594,0,0,1,2.551-5.207,11.065,11.065,0,0,1,3.07-2.837,10.276,10.276,0,0,1,4.7-1.468,4.47,4.47,0,0,1,.742.009,4.6,4.6,0,0,1,.715-.01h.007a10.279,10.279,0,0,1,4.7,1.469,11.064,11.064,0,0,1,3.07,2.837,17.589,17.589,0,0,1,2.55,5.207,59.856,59.856,0,0,1,2.758,15.8v.006c.2,2.676.4,5.442.916,8.695.115.731.212,1.5.31,2.281.265,2.117.616,4.927,1.489,6.348.208-.241.471-.57.793-1.019.64-.891,1.231-1.852,1.622-2.488.258-.419.522-.849.772-1.236,1.669-2.592,3.188-7.043,4.391-12.874A163.038,163.038,0,0,0,74.952,73.57c.242-3.806,2.818-9.23,5.09-14.015l0-.007c.925-1.947,1.8-3.787,2.225-4.935,5.458-14.708,6.341-21.745,6.5-26.232a24.87,24.87,0,0,0-1.6-10.464,17.554,17.554,0,0,0-6.389-7.875A16.576,16.576,0,0,0,71.2,7.384a25.621,25.621,0,0,0-3.536.253,73.715,73.715,0,0,0-8.6,1.84L59,9.493a51.96,51.96,0,0,1-10.17,1.9,4.636,4.636,0,0,1-.7-.01,4.616,4.616,0,0,1-.694.01A51.783,51.783,0,0,1,37.246,9.487,74.17,74.17,0,0,0,28.6,7.637a25.662,25.662,0,0,0-3.529-.252A16.659,16.659,0,0,0,15.566,9.986Z" transform="translate(27.055 14.417)" fill="#957841"/></g></svg>