<svg xmlns="http://www.w3.org/2000/svg" width="211" height="112.285" viewBox="0 0 211 112.285">
    <defs>
        <linearGradient id="a" x1=".313" y1=".031" x2=".639" y2="1.091" gradientUnits="objectBoundingBox">
            <stop offset="0" stop-color="#d7c891"/>
            <stop offset="1" stop-color="#84754e"/>
        </linearGradient>
    </defs>
    <path data-name="Path 2" d="M41.725 39.079v59.077a18.666 18.666 0 0 1-5.559 13.55 19.618 19.618 0 0 1-6.138 4.169 18.471 18.471 0 0 1-7.413 1.506 18.049 18.049 0 0 1-7.354-1.506 20.114 20.114 0 0 1-10.25-10.25 18.3 18.3 0 0 1-1.506-7.47V50.2h11.814V97q0 4.4 2.085 6.485a7.073 7.073 0 0 0 5.211 2.085 7.073 7.073 0 0 0 5.212-2.085Q29.912 101.4 29.912 97V39.079zm51.483-22.227A20.114 20.114 0 0 0 82.958 6.6 18.049 18.049 0 0 0 75.6 5.1v11.81a7.072 7.072 0 0 1 5.211 2.085Q82.9 21.079 82.9 25.48V63.6q0 4.4-2.085 6.485a7.558 7.558 0 0 1-10.423 0Q68.307 68 68.307 63.6V27.961H56.494v77.828h11.813V82.5a18.057 18.057 0 0 0 7.3 1.482 18.471 18.471 0 0 0 7.413-1.506 19.627 19.627 0 0 0 6.138-4.169 18.666 18.666 0 0 0 5.559-13.55V24.322a18.3 18.3 0 0 0-1.509-7.47zm36.781 52.635a12.07 12.07 0 0 1-8.866 3.438c-8.677 0-12.052-5.457-12.083-11.452-.032-5.679 3.786-11.706 12.083-11.706a11.828 11.828 0 0 1 8.551 3.534l-3.85 3.785a6.5 6.5 0 0 0-4.7-1.924c-4.26 0-5.931 3.471-5.9 6.342s1.546 6.121 5.9 6.121a7.642 7.642 0 0 0 5.206-2.24zm23.724-.757h-9.875l-1.451 3.628h-6.625l9.907-22.086h6.31l9.875 22.086h-6.689zm-4.922-12.273-2.839 7.036h5.648zm39.669 15.9h-6.877l-5.144-7.157h-2.177v7.162h-6.247V50.273h10.79c5.648 0 8.582 3.629 8.582 7.6 0 2.713-.947 5.016-4.67 6.657l5.742 7.446zm-14.2-17.1v5.3h4.606A2.315 2.315 0 0 0 181.235 58a2.487 2.487 0 0 0-2.43-2.745zm40.243 17.1h-17.665V50.273h17.668v5.238H202.99v3.155h6.076v5.08h-6.076v3.344h11.516zm-99.972 6.654-2 2.95h-.154l-2.013-2.988V83.6h-.538v-5.378h.66l1.967 2.965 1.944-2.965h.676V83.6h-.538zm8.8 4.586h-3.856v-5.375h3.787v.507h-3.25v1.929h3.1v.5h-3.1v1.936h3.318zm5.984-5.377a2.54 2.54 0 0 1 2.7 2.635 2.572 2.572 0 0 1-2.7 2.742h-1.9v-5.375zm-1.36 4.878h1.36a2.09 2.09 0 0 0 2.151-2.251 2.063 2.063 0 0 0-2.151-2.121h-1.36zm8.121.5v-5.376h.538V83.6zm9.354-.729a2.731 2.731 0 0 1-1.959.814 2.6 2.6 0 0 1-2.8-2.742 2.645 2.645 0 0 1 2.8-2.8 2.472 2.472 0 0 1 1.905.806l-.33.33a2.231 2.231 0 0 0-1.575-.645 2.171 2.171 0 0 0-2.258 2.3 2.1 2.1 0 0 0 2.258 2.251 2.32 2.32 0 0 0 1.613-.66zm7.552-.515h-3.119l-.553 1.244h-.568l2.412-5.377h.538L154.1 83.6h-.569zm-2.9-.492h2.689l-1.344-3.058zm8.382-3.641v4.871h2.989v.508h-3.526v-5.378zm14.345 4.648a2.732 2.732 0 0 1-1.959.814 2.6 2.6 0 0 1-2.8-2.742 2.644 2.644 0 0 1 2.8-2.8 2.473 2.473 0 0 1 1.905.806l-.331.33a2.23 2.23 0 0 0-1.575-.645 2.171 2.171 0 0 0-2.258 2.3 2.1 2.1 0 0 0 2.258 2.251 2.322 2.322 0 0 0 1.613-.66zm8.036.729h-3.856v-5.376h3.787v.507h-3.25v1.929h3.1v.5h-3.1v1.936h3.319zm8.143-1.014-.031-1.782v-2.58h.538V83.6h-.323l-3.48-4.325.016 1.59V83.6h-.538v-5.378h.338zm6.423-3.857h-1.9v-.507h4.332v.507h-1.9V83.6h-.538zm10.306 4.873h-3.856v-5.378h3.787v.507H202.4v1.929h3.1v.5h-3.1v1.936h3.319zm8.735 0h-.7l-1.782-1.982h-1.39V83.6h-.537v-5.378h2.412a1.645 1.645 0 0 1 1.782 1.7 1.558 1.558 0 0 1-1.621 1.652zm-3.872-4.871v2.382h1.844a1.193 1.193 0 1 0 .031-2.382z" transform="translate(-3.506 -5.097)" style="fill:url(#a)"/>
</svg>
