<svg xmlns="http://www.w3.org/2000/svg" width="153.749" height="81.999" viewBox="0 0 153.749 81.999">
  <path id="Caminho_313" data-name="Caminho 313" d="M31.355,29.914V73.056a13.647,13.647,0,0,1-4.051,9.9A14.294,14.294,0,0,1,22.832,86a13.434,13.434,0,0,1-5.4,1.1A13.126,13.126,0,0,1,12.072,86,14.673,14.673,0,0,1,4.6,78.512a13.388,13.388,0,0,1-1.1-5.455V38.033h8.608V72.211a6.468,6.468,0,0,0,1.519,4.736,5.148,5.148,0,0,0,3.8,1.523,5.148,5.148,0,0,0,3.8-1.523,6.468,6.468,0,0,0,1.519-4.736v-42.3ZM68.869,13.682A14.673,14.673,0,0,0,61.4,6.2a13.127,13.127,0,0,0-5.359-1.1h0v8.627h0a5.147,5.147,0,0,1,3.8,1.523,6.468,6.468,0,0,1,1.519,4.736V47.819a6.468,6.468,0,0,1-1.519,4.736,5.5,5.5,0,0,1-7.6,0,6.468,6.468,0,0,1-1.519-4.736V21.794H42.117V78.63h8.608V61.623A13.132,13.132,0,0,0,56.041,62.7a13.434,13.434,0,0,0,5.4-1.1,14.3,14.3,0,0,0,4.473-3.045,13.647,13.647,0,0,0,4.051-9.9V19.137A13.389,13.389,0,0,0,68.869,13.682ZM95.67,52.12a8.784,8.784,0,0,1-6.46,2.511c-6.322,0-8.782-3.985-8.8-8.363-.023-4.148,2.759-8.548,8.8-8.548A8.609,8.609,0,0,1,95.44,40.3l-2.805,2.764A4.732,4.732,0,0,0,89.21,41.66c-3.1,0-4.322,2.534-4.3,4.631s1.126,4.47,4.3,4.47A5.562,5.562,0,0,0,93,49.125Zm17.287-.553h-7.2l-1.058,2.65H99.876l7.219-16.129h4.6l7.2,16.129h-4.874ZM109.37,42.6,107.3,47.743h4.115Zm28.906,11.612h-5.011l-3.748-5.231h-1.586v5.231h-4.552V38.088h7.862c4.115,0,6.254,2.65,6.254,5.553,0,1.981-.69,3.663-3.4,4.861l4.184,5.438ZM127.931,41.729V45.6h3.356a1.689,1.689,0,0,0,1.725-1.866,1.815,1.815,0,0,0-1.77-2Zm29.324,12.488H144.381V38.088h12.874v3.825h-8.392v2.3h4.427v3.71h-4.427v2.442h8.392Z" transform="translate(-3.506 -5.097)" fill="#fff"/>
</svg>
