<svg xmlns="http://www.w3.org/2000/svg" xmlns:xlink="http://www.w3.org/1999/xlink" width="154" height="82" viewBox="0 0 154 82">
  <defs>
    <linearGradient id="linear-gradient" x1="0.313" y1="0.031" x2="0.639" y2="1.091" gradientUnits="objectBoundingBox">
      <stop offset="0" stop-color="#d7c891"/>
      <stop offset="1" stop-color="#84754e"/>
    </linearGradient>
  </defs>
  <path id="Caminho_236" data-name="Caminho 236" d="M31.4,29.914V73.057a13.636,13.636,0,0,1-4.057,9.9A14.318,14.318,0,0,1,22.863,86a13.474,13.474,0,0,1-5.41,1.1A13.166,13.166,0,0,1,12.086,86,14.685,14.685,0,0,1,4.6,78.512a13.37,13.37,0,0,1-1.1-5.455V38.034h8.622V72.211a6.461,6.461,0,0,0,1.522,4.736,5.161,5.161,0,0,0,3.8,1.523,5.16,5.16,0,0,0,3.8-1.523,6.461,6.461,0,0,0,1.522-4.736v-42.3ZM68.976,13.682A14.685,14.685,0,0,0,61.495,6.2a13.167,13.167,0,0,0-5.368-1.1h0v8.627h0a5.16,5.16,0,0,1,3.8,1.523,6.461,6.461,0,0,1,1.522,4.736V47.82a6.461,6.461,0,0,1-1.522,4.736,5.514,5.514,0,0,1-7.608,0A6.461,6.461,0,0,1,50.8,47.82V21.794H42.18V78.631H50.8V61.623a13.172,13.172,0,0,0,5.325,1.082,13.474,13.474,0,0,0,5.41-1.1,14.324,14.324,0,0,0,4.48-3.045,13.636,13.636,0,0,0,4.057-9.9V19.137A13.37,13.37,0,0,0,68.976,13.682ZM95.82,52.121a8.806,8.806,0,0,1-6.471,2.511c-6.333,0-8.8-3.986-8.819-8.363-.023-4.148,2.763-8.548,8.819-8.548A8.63,8.63,0,0,1,95.59,40.3l-2.81,2.764A4.744,4.744,0,0,0,89.35,41.66c-3.109,0-4.329,2.534-4.306,4.631s1.128,4.47,4.306,4.47a5.576,5.576,0,0,0,3.8-1.636Zm17.315-.553h-7.207l-1.059,2.65h-4.836l7.231-16.129h4.606l7.207,16.129h-4.882ZM109.543,42.6l-2.072,5.138h4.122ZM138.5,54.217h-5.019l-3.754-5.231h-1.589v5.231h-4.559V38.088h7.875c4.122,0,6.264,2.65,6.264,5.553,0,1.981-.691,3.663-3.409,4.862l4.191,5.438ZM128.134,41.729V45.6H131.5a1.69,1.69,0,0,0,1.728-1.866,1.816,1.816,0,0,0-1.773-2Zm29.372,12.488h-12.9V38.088h12.9v3.825H149.1v2.3h4.435v3.71H149.1v2.442h8.405Zm-72.965,4.86-1.463,2.154h-.112L81.5,59.049v3.377H81.1V58.5h.482l1.435,2.165L84.44,58.5h.494v3.927h-.393Zm6.421,3.349H88.148V58.5h2.764v.37H88.54v1.408h2.265v.365H88.54v1.414h2.422ZM95.33,58.5A1.854,1.854,0,0,1,97.3,60.424a1.877,1.877,0,0,1-1.968,2H93.945V58.5Zm-.993,3.562h.993a1.526,1.526,0,0,0,1.57-1.644,1.506,1.506,0,0,0-1.57-1.549h-.993Zm5.927.364V58.5h.392v3.927Zm6.827-.533a1.993,1.993,0,0,1-1.43.594,1.9,1.9,0,0,1-2.041-2,1.931,1.931,0,0,1,2.041-2.042,1.8,1.8,0,0,1,1.391.589l-.241.241a1.628,1.628,0,0,0-1.15-.471,1.585,1.585,0,0,0-1.648,1.677,1.534,1.534,0,0,0,1.648,1.644,1.693,1.693,0,0,0,1.178-.482Zm5.512-.376h-2.276l-.4.908h-.415l1.76-3.927h.392l1.761,3.927h-.415Zm-2.119-.359h1.963l-.981-2.233ZM116.6,58.5v3.557h2.181v.37h-2.574V58.5Zm10.47,3.394a1.993,1.993,0,0,1-1.43.594,1.9,1.9,0,0,1-2.041-2,1.93,1.93,0,0,1,2.041-2.042,1.8,1.8,0,0,1,1.391.589l-.241.241a1.627,1.627,0,0,0-1.149-.471,1.585,1.585,0,0,0-1.648,1.677,1.534,1.534,0,0,0,1.648,1.644,1.694,1.694,0,0,0,1.178-.482Zm5.865.533h-2.815V58.5h2.764v.37h-2.372v1.408h2.265v.365h-2.265v1.414h2.422Zm5.943-.74-.022-1.3V58.5h.392v3.927h-.235l-2.54-3.158.011,1.161v2h-.392V58.5h.247Zm4.688-2.817h-1.385V58.5h3.162v.37H143.96v3.557h-.392Zm7.524,3.557h-2.815V58.5h2.764v.37h-2.372v1.408h2.265v.365h-2.265v1.414h2.422Zm6.375,0h-.51l-1.3-1.447H154.64v1.447h-.392V58.5h1.76a1.2,1.2,0,0,1,1.3,1.245,1.137,1.137,0,0,1-1.183,1.206Zm-2.826-3.557v1.739h1.346a.871.871,0,1,0,.023-1.739Z" transform="translate(-3.506 -5.097)" fill="url(#linear-gradient)"/>
</svg>
