<svg xmlns="http://www.w3.org/2000/svg" width="48.129" height="49" viewBox="0 0 48.129 49">
  <g id="Grupo_239" data-name="Grupo 239" transform="translate(-182.936 -2346)">
    <path id="Caminho_264" data-name="Caminho 264" d="M119.7,39.73s-1.233-2.859-3.958-2.859-3.967,2.859-3.967,2.859" transform="translate(73.855 2310.129)" fill="none" stroke="#957841" stroke-linecap="round" stroke-miterlimit="10" stroke-width="2"/>
    <path id="Caminho_265" data-name="Caminho 265" d="M111.305,58.775V95.188s.247,4.219,4.081,4.219a3.789,3.789,0,0,0,3.734-2.7,5.889,5.889,0,0,0,.346-2.041V58.775" transform="translate(74.207 2294.594)" fill="none" stroke="#957841" stroke-linecap="round" stroke-miterlimit="10" stroke-width="2"/>
    <rect id="Retângulo_146" data-name="Retângulo 146" width="11.315" height="2.639" transform="translate(183.936 2350.73)" fill="none" stroke="#957841" stroke-linecap="round" stroke-miterlimit="10" stroke-width="2"/>
    <line id="Linha_45" data-name="Linha 45" x2="2.169" transform="translate(185.512 2363.895)" fill="none" stroke="#957841" stroke-linecap="round" stroke-miterlimit="10" stroke-width="2"/>
    <line id="Linha_46" data-name="Linha 46" x2="4.191" transform="translate(185.512 2367.415)" fill="none" stroke="#957841" stroke-linecap="round" stroke-miterlimit="10" stroke-width="2"/>
    <line id="Linha_47" data-name="Linha 47" x2="8.162" transform="translate(185.512 2380.299)" fill="none" stroke="#957841" stroke-linecap="round" stroke-miterlimit="10" stroke-width="2"/>
    <line id="Linha_48" data-name="Linha 48" x2="4.191" transform="translate(185.512 2375.335)" fill="none" stroke="#957841" stroke-linecap="round" stroke-miterlimit="10" stroke-width="2"/>
    <line id="Linha_49" data-name="Linha 49" x2="2.169" transform="translate(185.512 2371.815)" fill="none" stroke="#957841" stroke-linecap="round" stroke-miterlimit="10" stroke-width="2"/>
    <path id="Caminho_266" data-name="Caminho 266" d="M119.7,39.73s-1.233-2.859-3.958-2.859-3.967,2.859-3.967,2.859" transform="translate(108.67 2310.129)" fill="none" stroke="#957841" stroke-linecap="round" stroke-miterlimit="10" stroke-width="2"/>
    <path id="Caminho_267" data-name="Caminho 267" d="M111.305,58.775V95.188s.247,4.219,4.081,4.219a3.789,3.789,0,0,0,3.734-2.7,5.889,5.889,0,0,0,.346-2.041V58.775" transform="translate(109.021 2294.594)" fill="none" stroke="#957841" stroke-linecap="round" stroke-miterlimit="10" stroke-width="2"/>
    <rect id="Retângulo_147" data-name="Retângulo 147" width="11.315" height="2.639" transform="translate(218.75 2350.73)" fill="none" stroke="#957841" stroke-linecap="round" stroke-miterlimit="10" stroke-width="2"/>
    <line id="Linha_50" data-name="Linha 50" x2="2.169" transform="translate(220.326 2363.895)" fill="none" stroke="#957841" stroke-linecap="round" stroke-miterlimit="10" stroke-width="2"/>
    <line id="Linha_51" data-name="Linha 51" x2="4.191" transform="translate(220.326 2367.415)" fill="none" stroke="#957841" stroke-linecap="round" stroke-miterlimit="10" stroke-width="2"/>
    <line id="Linha_52" data-name="Linha 52" x2="8.162" transform="translate(220.326 2380.299)" fill="none" stroke="#957841" stroke-linecap="round" stroke-miterlimit="10" stroke-width="2"/>
    <line id="Linha_53" data-name="Linha 53" x2="4.191" transform="translate(220.326 2375.335)" fill="none" stroke="#957841" stroke-linecap="round" stroke-miterlimit="10" stroke-width="2"/>
    <line id="Linha_54" data-name="Linha 54" x2="2.169" transform="translate(220.326 2371.815)" fill="none" stroke="#957841" stroke-linecap="round" stroke-miterlimit="10" stroke-width="2"/>
    <path id="Caminho_268" data-name="Caminho 268" d="M119.7,39.73s-1.233-2.859-3.958-2.859-3.967,2.859-3.967,2.859" transform="translate(91.262 2310.129)" fill="none" stroke="#957841" stroke-linecap="round" stroke-miterlimit="10" stroke-width="2"/>
    <path id="Caminho_269" data-name="Caminho 269" d="M111.305,58.775V95.188s.247,4.219,4.081,4.219a3.789,3.789,0,0,0,3.734-2.7,5.889,5.889,0,0,0,.346-2.041V58.775" transform="translate(91.613 2294.594)" fill="none" stroke="#957841" stroke-linecap="round" stroke-miterlimit="10" stroke-width="2"/>
    <rect id="Retângulo_148" data-name="Retângulo 148" width="11.315" height="2.639" transform="translate(201.344 2350.73)" fill="none" stroke="#957841" stroke-linecap="round" stroke-miterlimit="10" stroke-width="2"/>
    <line id="Linha_55" data-name="Linha 55" x2="2.169" transform="translate(202.92 2363.895)" fill="none" stroke="#957841" stroke-linecap="round" stroke-miterlimit="10" stroke-width="2"/>
    <line id="Linha_57" data-name="Linha 57" x2="8.162" transform="translate(202.92 2367.415)" fill="none" stroke="#957841" stroke-linecap="round" stroke-miterlimit="10" stroke-width="2"/>
  </g>
</svg>
