<svg id="Component_3_34"  xmlns="http://www.w3.org/2000/svg" width="135" height="21" viewBox="0 0 135 21">

    <g id="Group_10"  transform="translate(228 94.745) rotate(180)">

        <g  id="Group_8" transform="translate(93 86.806)" >
            <path id="Path_6"  d="M107.5,125.879H93.439a.439.439,0,1,1,0-.879H107.5a.439.439,0,0,1,0,.879Z" transform="translate(-93 -125)" />
        </g>
        <g id="Group_9" transform="translate(105.313 79.745)">
            <path id="Path_7" d="M170.694,94.745a.425.425,0,0,1-.311-.137.487.487,0,0,1,0-.659l6.316-6.7-6.316-6.7a.486.486,0,0,1,0-.659.421.421,0,0,1,.621,0l6.937,7.363L171,94.608A.425.425,0,0,1,170.694,94.745Z" transform="translate(-170.255 -79.745)" />
        </g>
    </g>
</svg>