<svg xmlns="http://www.w3.org/2000/svg" width="22" height="22" viewBox="0 0 22 22">
  <g id="noun_Calendar_1272053" transform="translate(442 50.321)">
    <g id="Grupo_2" data-name="Grupo 2" transform="translate(-0.161)">
      <path id="Caminho_3" data-name="Caminho 3" d="M7.933,25H24.067A2.873,2.873,0,0,0,27,22.191V8.617a2.873,2.873,0,0,0-2.933-2.809H21.622V3.936a.979.979,0,0,0-1.956,0V5.809H12.333V3.936a.979.979,0,0,0-1.956,0V5.809H7.933A2.873,2.873,0,0,0,5,8.617V22.191A2.873,2.873,0,0,0,7.933,25Zm16.133-1.872H7.933a.958.958,0,0,1-.978-.936V12.673H25.044v9.519A.958.958,0,0,1,24.067,23.128ZM7.933,7.681h2.444v.936a.979.979,0,0,0,1.956,0V7.681h7.333v.936a.979.979,0,0,0,1.956,0V7.681h2.444a.958.958,0,0,1,.978.936V10.8H6.956V8.617A.958.958,0,0,1,7.933,7.681Z" transform="translate(-446.839 -53.321)" fill="#d7c891"/>
    </g>
  </g>
</svg>
