<svg xmlns="http://www.w3.org/2000/svg" width="100" height="100" viewBox="0 0 100 100">
  <g id="Grupo_83" data-name="Grupo 83" transform="translate(-1261 -820)">
    <g id="Elipse_3" data-name="Elipse 3" transform="translate(1261 820)" fill="#957841" stroke="#d7c891" stroke-width="2">
      <circle cx="50" cy="50" r="50" stroke="none"/>
      <circle cx="50" cy="50" r="49" fill="none"/>
    </g>
    <path id="Caminho_30" data-name="Caminho 30" d="M20.687,20.229V46.536a8.373,8.373,0,0,1-.651,3.326,8.476,8.476,0,0,1-1.848,2.708,8.823,8.823,0,0,1-2.759,1.857,8.371,8.371,0,0,1-3.332.67,8.179,8.179,0,0,1-3.306-.67A8.9,8.9,0,0,1,6.057,52.57a8.808,8.808,0,0,1-1.874-2.708,8.082,8.082,0,0,1-.677-3.326V25.18h5.31V46.02a3.915,3.915,0,0,0,.937,2.888,3.2,3.2,0,0,0,2.343.928,3.2,3.2,0,0,0,2.343-.928,3.915,3.915,0,0,0,.937-2.888V20.229Zm23.143-9.9a9,9,0,0,0-4.608-4.564,8.18,8.18,0,0,0-3.306-.67h0v5.26h0a3.2,3.2,0,0,1,2.343.928,3.915,3.915,0,0,1,.937,2.888V31.147a3.915,3.915,0,0,1-.937,2.888,3.421,3.421,0,0,1-4.686,0,3.915,3.915,0,0,1-.937-2.888V15.278h-5.31V49.935h5.31V39.564a8.183,8.183,0,0,0,3.28.66,8.371,8.371,0,0,0,3.332-.67A8.827,8.827,0,0,0,42.007,37.7a8.476,8.476,0,0,0,1.848-2.708,8.374,8.374,0,0,0,.651-3.326v-18A8.082,8.082,0,0,0,43.829,10.332Z" transform="translate(1286.994 839.903)" fill="#fff"/>
  </g>
</svg>
