<svg id="Layer_1" data-name="Layer 1" xmlns="http://www.w3.org/2000/svg" xmlns:xlink="http://www.w3.org/1999/xlink" viewBox="0 0 360 253.15"><defs><style>.cls-1{fill:url(#linear-gradient);}.cls-2{fill:#fff;}.cls-3{fill:#004856;}.cls-4{fill:#fbdbc8;}.cls-5,.cls-7,.cls-8,.cls-9{fill:none;}.cls-5,.cls-7,.cls-8{stroke-miterlimit:10;stroke-width:0.27px;}.cls-5{stroke:url(#linear-gradient-2);}.cls-6{fill:#fcddca;}.cls-7{stroke:url(#linear-gradient-3);}.cls-8{stroke:url(#linear-gradient-4);}.cls-9{stroke:#004856;stroke-linecap:round;stroke-linejoin:round;stroke-width:2.43px;}</style><linearGradient id="linear-gradient" x1="61.6" y1="123.98" x2="303.11" y2="123.98" gradientTransform="translate(141.07 -92.63) rotate(45)" gradientUnits="userSpaceOnUse"><stop offset="0" stop-color="#eacc8f"/><stop offset="0.19" stop-color="#ddbe7c"/><stop offset="0.46" stop-color="#ceae68"/><stop offset="0.74" stop-color="#c5a55b"/><stop offset="1" stop-color="#c2a257"/></linearGradient><linearGradient id="linear-gradient-2" x1="56.97" y1="55.52" x2="60.23" y2="55.52" gradientTransform="matrix(1, 0, 0, 1, 0, 0)" xlink:href="#linear-gradient"/><linearGradient id="linear-gradient-3" x1="288.3" y1="58.21" x2="304.9" y2="58.21" gradientTransform="matrix(1, 0, 0, 1, 0, 0)" xlink:href="#linear-gradient"/><linearGradient id="linear-gradient-4" x1="290.12" y1="77.55" x2="300.9" y2="77.55" gradientTransform="matrix(1, 0, 0, 1, 0, 0)" xlink:href="#linear-gradient"/></defs><circle class="cls-1" cx="182.35" cy="123.98" r="120.76" transform="translate(-34.25 165.26) rotate(-45)"/><path class="cls-2" d="M5.22,175.08c30.52,40.64,79.58,66.76,130.34,69.38,2.18.12,4.38.2,6.58.32a12.55,12.55,0,0,0,13.23-13c-1.17-32-3.22-77.13-6-89.08-2.82-12.1-2.48-31.95-16.09-38.78-14.83-7.45-31.62-8.65-48.27-8.89-18.68-.28-38.48.49-56.15,6.47-4.68,1.59-9.25,3.67-12.79,6.83-7.52,6.7-9.15,16.89-10.38,26.32-.22,1.65-1.19,15.86-2.28,34.27a9.28,9.28,0,0,0,1.8,6.11Z"/><path class="cls-3" d="M96.41,17.29C89.16,15.48,85.3,10.41,77.54,11c-11.25.81-17,6.49-23.18,15.1C50,32.15,40.59,36.23,37.63,42.83c-2.23,5,1.32,10.45,2.3,15.8a16.9,16.9,0,0,1-3.4,13.43c-1.49,1.86-3.39,3.4-4.71,5.4-1.8,2.72-2.38,6.05-2.92,9.28Q27,97.82,25.19,108.91a131.37,131.37,0,0,1,39.54.44c-3.32-.54,2-11.51,3.38-12.74,3.36-3,9.12-4.29,12.85-7.67a156.13,156.13,0,0,0,28.35-34.18C117.22,41.85,112.23,21.24,96.41,17.29Z"/><path class="cls-4" d="M90.26,81.25a13.24,13.24,0,0,0,.11,3.67c1.06,5.53,5.49,6.12,7.3,10.67a4.28,4.28,0,0,1-.33,3.18c-3,7.16-11.25,12.08-19.48,11.56s-15.74-6.45-17.62-13.91c11.66-4.52,6.35-18.59,5.77-27a3.73,3.73,0,0,1,.23-2c.62-1.2,2.29-1.48,3.71-1.59,5.65-.44,17.7-2.39,20.36,4.18C91.8,73.72,90.59,77.56,90.26,81.25Z"/><path class="cls-4" d="M105.23,36.53c0-20.08-48.19-20.09-48.2,0,0,0-2.9,29.9,13.41,46.19a16.5,16.5,0,0,0,23.31,0C110.07,66.42,105.23,36.53,105.23,36.53Z"/><path class="cls-4" d="M51.27,52.52c1.69-7,8.23-2.4,8.23-2.4l2.06,16.12C57.11,67.06,49.26,60.83,51.27,52.52Z"/><path class="cls-2" d="M105.34,60.59c-.59,10.86-7.16,19.76-11.64,23.21-6.84,5.25-16.42,5.67-22.9,0C67.62,81,65.54,78,61.68,76.69c-.92,0-1.84-9.71-2.51-16.11a126.43,126.43,0,0,1,17.27-6.43A30.17,30.17,0,0,1,102.2,58.3C103.81,59.42,104.9,60.31,105.34,60.59Z"/><path class="cls-5" d="M60.09,62.12A52.25,52.25,0,0,0,57.1,49"/><path class="cls-3" d="M91.67,17.7S85.91,47.46,57.1,49C40.51,30.62,75.08-.64,91.67,17.7Z"/><path class="cls-3" d="M105.9,45.43C93,37,88,18.92,88,18.92,103.82,15.94,113.24,31.24,105.9,45.43Z"/><path class="cls-3" d="M124,77.28a9.5,9.5,0,0,0-.78-3.8c-1.71-3.68-6.21-5.29-8.33-8.75-2.34-3.83-1.16-8.72-1.27-13.21a22.58,22.58,0,0,0-14-20c2.32,7.36,6.53,15.81,5.76,24.26-.71,7.64-.6,15.47-4.76,22.25C98.48,81.46,93,83.5,91.34,87c-5.92,12.56-3.76,25.7-5.79,38.91q24.44-1.64,49-1a37.08,37.08,0,0,1-3.79-18.72c.23-3.8,1-7.86-.78-11.22-1.42-2.7-4.29-4.46-5.52-7.25C123,84.5,124.06,80.76,124,77.28Z"/><path class="cls-2" d="M211.73,248c33.48-9.66,65.81-24.51,92.83-46.51,19-15.46,35.21-34.53,46.51-56.29a87.14,87.14,0,0,0,3.35-8.14,24.54,24.54,0,0,0-3.49-24,44.45,44.45,0,0,0-6.43-6.64C324.06,89.45,287.26,91.7,263.15,95.7a167.6,167.6,0,0,0-21,4.93c-6.85,2.08-14.28,4.58-18.09,10.63-1.85,2.95-2.62,6.44-3.36,9.84-6.64,30.72-5.7,64.41-8.6,96-.18,1.91-1.19,17.15-2.44,29.23a1.61,1.61,0,0,0,2.05,1.7Z"/><path class="cls-6" d="M278.2,83.74c-.13.61-.27,1.16-.4,1.63a10.7,10.7,0,0,1-1.78,4.1c-2.14,2.62-6.13,2.69-8.94,4.57a2,2,0,0,0-.93,1.15c-.14.78.55,1.43,1.19,1.9,12.54,9.22,33.58,13.69,42.61-2.32-3.81-2.2-8.59-3.26-9.74-8.15-.92-3.92,1.4-9.57.73-13.94-.95-6.26-8.44-19.88-16.05-14.42C279.54,62.1,279.49,77.79,278.2,83.74Z"/><path class="cls-3" d="M258.1,5.26c2.61,4.29,8.31,2.58,12.08,1.43,4.95-1.51,9.91-3.59,15.18-3.46,7.28.17,15.42,4.12,20.26,9.46C311.27,18.93,311,29,306.8,36.27l-41.05,3.91-1.11,1.67C246.9,29.21,258.1,5.26,258.1,5.26Z"/><path class="cls-3" d="M294.23,81.88c18.91-8.12,31.6-24.53,32.21-41.64.18-4.93-.69-10.11-4.23-14.19S311.87,19.34,306,20.93C291.83,39.08,288,61,294.23,81.88Z"/><path class="cls-4" d="M271.13,88.69l0,0a7.67,7.67,0,0,0,4.93,2.21,19.74,19.74,0,0,0,8.58-1.43,28.68,28.68,0,0,0,15.63-14.82c7.78-16.79,3.29-36.37,3.29-36.37-6.88-22.77-43.07-21.95-45-.23C258.57,38.07,253.25,70.84,271.13,88.69Z"/><path class="cls-4" d="M312.46,59c-1.5-7.7-8.89-3-8.89-3L300.5,73.51C305.34,74.63,314.24,68.21,312.46,59Z"/><path class="cls-3" d="M304.86,54.54s-11.44-12.15-9.06-27.61c6.32,3.61,13.42,12.24,11.44,19.25-.38,1.34-2,6.91-2.38,8.36Z"/><path class="cls-2" d="M266.4,86.33l.05,0a15.78,15.78,0,0,0,16,5.19,18,18,0,0,0,7.41-3.83c2.1-1.8,3.76-3.7,5.68-5.23h0a32.15,32.15,0,0,1-3.3-22.78l.23-1c-2.71-1-5.73-2-8.78-2.85a33.66,33.66,0,0,0-26,3.06C257.45,70.76,262.29,81.32,266.4,86.33Z"/><path class="cls-7" d="M304.78,55.28C302.1,62,288.31,61,288.31,61"/><path class="cls-8" d="M300.78,73.56s-3,5.18-10.61,7.92"/><path class="cls-3" d="M233.2,46.7v8.78a1.23,1.23,0,0,0,2,1l6.07-4.39a1.23,1.23,0,0,0,0-2l-6.07-4.39A1.23,1.23,0,0,0,233.2,46.7Z"/><path class="cls-3" d="M128.81,52.09l6.08,4.39a1.23,1.23,0,0,0,1.94-1V46.7a1.22,1.22,0,0,0-1.94-1l-6.08,4.39A1.23,1.23,0,0,0,128.81,52.09Z"/><line class="cls-9" x1="132.13" y1="51.09" x2="237.9" y2="51.09"/></svg>