<svg id="Componente_3_34" data-name="Componente 3 – 34" xmlns="http://www.w3.org/2000/svg" width="135" height="15" viewBox="0 0 135 15">
  <g id="Grupo_10" data-name="Grupo 10" transform="translate(228 94.745) rotate(180)">
    <g id="Grupo_8" data-name="Grupo 8" transform="translate(93 86.806)">
      <path id="Caminho_6" data-name="Caminho 6" d="M156.2,125.879H94.915c-1.058,0-1.915-.2-1.915-.439s.857-.439,1.915-.439H156.2c1.058,0,1.915.2,1.915.439S157.254,125.879,156.2,125.879Z" transform="translate(-93 -125)" fill="#84754e"/>
    </g>
    <g id="Grupo_9" data-name="Grupo 9" transform="translate(156.313 79.745)">
      <path id="Caminho_7" data-name="Caminho 7" d="M170.694,94.745a.425.425,0,0,1-.311-.137.487.487,0,0,1,0-.659l6.316-6.7-6.316-6.7a.486.486,0,0,1,0-.659.421.421,0,0,1,.621,0l6.937,7.363L171,94.608A.425.425,0,0,1,170.694,94.745Z" transform="translate(-170.255 -79.745)" fill="#84754e"/>
    </g>
  </g>
 </svg>
