<svg id="Layer_1" data-name="Layer 1" xmlns="http://www.w3.org/2000/svg" xmlns:xlink="http://www.w3.org/1999/xlink" viewBox="0 0 243.74 260.56"><defs><style>.cls-1{fill:url(#linear-gradient);}.cls-2{fill:#004856;}.cls-3{fill:#fff;}.cls-4{fill:#fcddca;}.cls-5{fill:#fbdbc8;}.cls-6{fill:url(#linear-gradient-2);}.cls-7{fill:url(#linear-gradient-3);}.cls-8{fill:url(#linear-gradient-4);}.cls-9{fill:url(#linear-gradient-5);}</style><linearGradient id="linear-gradient" x1="14.59" y1="140.35" x2="232.28" y2="140.35" gradientTransform="translate(135.39 -46.18) rotate(45)" gradientUnits="userSpaceOnUse"><stop offset="0" stop-color="#eacc8f"/><stop offset="0.19" stop-color="#ddbe7c"/><stop offset="0.46" stop-color="#ceae68"/><stop offset="0.74" stop-color="#c5a55b"/><stop offset="1" stop-color="#c2a257"/></linearGradient><linearGradient id="linear-gradient-2" x1="81.7" y1="87.18" x2="112.82" y2="87.18" gradientTransform="matrix(1, 0, 0, 1, 0, 0)" xlink:href="#linear-gradient"/><linearGradient id="linear-gradient-3" x1="164.15" y1="82.08" x2="188.29" y2="82.08" gradientTransform="matrix(1, 0, 0, 1, 0, 0)" xlink:href="#linear-gradient"/><linearGradient id="linear-gradient-4" x1="158.58" y1="102.17" x2="186.86" y2="102.17" gradientTransform="matrix(1, 0, 0, 1, 0, 0)" xlink:href="#linear-gradient"/><linearGradient id="linear-gradient-5" x1="92.05" y1="68.07" x2="94.91" y2="68.07" gradientTransform="matrix(1, 0, 0, 1, 0, 0)" xlink:href="#linear-gradient"/></defs><circle class="cls-1" cx="123.44" cy="140.34" r="108.84" transform="translate(-63.09 128.39) rotate(-45)"/><path class="cls-2" d="M197.35,104.05c-.64,2.41-2.6,4.32-4.45,6-16.92,15.69-36.4,32-59.44,31.93-14.06,0-36.68-4.51-46.51-15.25l-11-12c-4.4-4.81-9.1-10.42-8.61-16.93.56-7.43,6.16-13.76,8.83-20.49,3.08-7.79,4.28-16.31,6-24.48A70.66,70.66,0,0,1,95.05,25.44c5.88-7.51,12.16-8.4,19.24-13.21,26.55-17.6,57.48-2.33,66.12,32.47a78.14,78.14,0,0,1,1.64,8.76c1.59,16,6.49,28.52,13.57,42.76,1.1,2.21,2.23,4.6,1.89,7A6.33,6.33,0,0,1,197.35,104.05Z"/><path class="cls-3" d="M68.94,241.87q-3.54-27.35-7.09-54.69c-1.93-15-2.76-31.73-7.3-46-3.31-10.13,30.28-16.49,36.26-18.39,10.19-3.23,20.45-6.47,31.07-7.61,22.65-2.43,45.18,4.86,66.25,13.56,2.09.87,4.34,1.9,5.36,3.92a9.56,9.56,0,0,1,.56,5c-1.63,24.74-3.2,49.3-5.14,74-.44,5.61-1.08,42.85-10.58,42.86L73.15,256.65Z"/><path class="cls-4" d="M27.25,246.83c-4,.49-8.74-1-12.68-3.54C-10.56,227,15.47,209,23.21,198l17.88-25.45c0,.07,11.8,8,12.55,8.72,6.66,6.18,2.92,12.44,1.06,19.22a134.31,134.31,0,0,1-18.17,39.43c-1.81,2.68-3.89,5.36-7.22,6.48A10.64,10.64,0,0,1,27.25,246.83Z"/><path class="cls-3" d="M58.65,200l-.39,1.23c-4.32-.2-7.07-.24-11.31-1.83A65.4,65.4,0,0,1,35.63,194c-1.81-1.12-17-7.33-17.63-6.14Q25.46,173,32.89,158.1a61.37,61.37,0,0,1,5.54-9.6c5.44-7.25,13.72-11.71,21.73-15.93,12.43-6.57,20.68,9.88,17.85,21-2,8-7.49,14.23-10.53,21.73C64.22,183.33,61.32,191.73,58.65,200Z"/><path class="cls-4" d="M108,115.37a11.5,11.5,0,0,1-3,3c-.49.33-1.07.72-1.11,1.32s.43,1,.85,1.38c4,3.46,15,20.6,20.71,19.27a6.63,6.63,0,0,0,3.26-2.52l12-14.2a1.58,1.58,0,0,0-.28-2.78c-10.22-7.66-8.36-22.26-10.78-34.17-1.32-6.48-3-15.26-10-10.17-4.3,3.16-5.3,14.18-6.34,18.89C111.92,101.41,111.82,110,108,115.37Z"/><path class="cls-5" d="M170.64,53.23c3-14.79-13.33-25.77-31-29.28-17.67-3.71-37,0-40,14.79,0,0-13.1,42.89,5.87,71.57A24.47,24.47,0,0,0,120,120.59a24.35,24.35,0,0,0,17.35-3.78C166,97.84,170.64,53.23,170.64,53.23Z"/><path class="cls-5" d="M86.18,60.4c4.52-9.68,12.71-1.07,12.71-1.07l-1.76,24.2C90.39,83.4,80.78,72,86.18,60.4Z"/><path class="cls-5" d="M174.6,78.44c-.39-10.68-11.29-6-11.29-6l-7.8,23C161.77,98,175.06,91.19,174.6,78.44Z"/><path class="cls-2" d="M92.89,59.69c12.22-7.38,14.6-27.25,38-31C110.29,10.15,81.81,39.07,92.89,59.69Z"/><path class="cls-4" d="M237,227.18c.2-5.26-1.46-10.35-3.09-15.26q-2.83-8.49-5.66-17c-2.29-6.86-5.14-14.43-11-17.16-3.86-1.81-8.21-1.06-12.31-.29-4.49.85-9.84,2.52-11.16,7.62-.77,3,.17,6.13,1.09,9q3.72,11.74,7.46,23.5c2.38,7.51,5,15.39,10.33,20.4C221,245.85,236.5,240.76,237,227.18Z"/><path class="cls-2" d="M157.43,19.9c-7.05-5.1-15.4-8.44-22.92-8.76-8.73-.38-31.58,5.05-29.53,16.57.61,3.44,3.37,6.14,6.43,8.11,7.35,4.71,15.39,8.75,22.18,13.93,7.31,5.57,14.53,10.66,23.43,14.4,4.13,1.74,9.21,3.17,13.54,1,6.73-3.28,3.91-18.64,2.34-24.69C170.86,32.65,164.87,25.29,157.43,19.9Z"/><path class="cls-3" d="M191.94,191.05a3,3,0,0,0,1.23-.2c6-2.39,12.18-4.61,18.14-7.18,5.39-2.31,11.28-2.85,16.49-5.49L211.09,149.4a61.2,61.2,0,0,0-6.12-9.22c-5.88-6.91-14.42-10.83-22.68-14.55-12.81-5.78-20,11.16-16.51,22.07,2.83,8.82,10.33,18,15,26.05C182.67,177.12,187,190.75,191.94,191.05Z"/><path class="cls-4" d="M189.38,161.5c.46-2.55,14.67-8.17,17.31-9,4.53-1.39,28.16,62,31.18,68.73,1.51,3.36,3,6.87,2.86,10.59-.36,9.16-12.31,13.17-20.21,13.07-11.54-.16-11.15-6.07-13.44-14.93q-3.6-13.95-7.21-27.9Q194.62,181.8,189.38,161.5Z"/><path class="cls-6" d="M111.76,88.85c-5.19,4.51-16.4,14.46-24.23,10.66-8.42-4.09-3.2-20.28-1.34-26.54a1.38,1.38,0,0,0-2.65-.73C81.25,80,76.3,96.7,86,101.83c9.21,4.84,21.37-5.58,27.67-11,1.33-1.16-.61-3.09-1.94-1.94Z"/><path class="cls-7" d="M165.45,81.18c3.27-5.24,9.16-6.88,14-3,3.29,2.66,7.65,7,7.22,11.53-.17,1.75,2.57,1.74,2.74,0,.58-6.07-5.65-12.46-10.5-15.29-5.84-3.41-12.59.09-15.86,5.33-.93,1.5,1.44,2.88,2.37,1.39Z"/><path class="cls-8" d="M157.4,99.34c1.52,6.32,9.36,9.64,15.35,9.72,7.32.09,14.14-4.66,15.3-12.06.27-1.73-2.37-2.47-2.65-.73-1,6.21-6.45,10.14-12.65,10-4.77-.08-11.49-2.62-12.71-7.71-.41-1.72-3.06-1-2.64.73Z"/><path class="cls-4" d="M35.19,161.92a15,15,0,0,1-.54-3c-.18-2.27,1.27-3.93,2.29-5.9l6-11.52,7.65-14.79c0-3.15,0-6.31-.08-9.46q-.06-7.89-.14-15.79c0-.8,0-1.61,0-2.41,0-.3,0-.6,0-.9.13-2.52,2.83-4.72,4.36-6.49,1.84-2.13,3.68-4.25,5.51-6.38a23.68,23.68,0,0,1,1.57-1.88,8.45,8.45,0,0,1,1.85-1.1c1.16-.65,2.36-1.23,3.54-1.82,2.62-1.34,5.25-2.69,8-3.82a10.17,10.17,0,0,1,1.49-.53c2.45-.59,1.6,5.3-2.24,7.67s-8.64,4-10.93,7.86-5,8.31-5,8.31l8.92-9,1.42-1.43a32,32,0,0,1,5.29-4c2.55-1.68,5.12-3.32,7.74-4.87,5.91-3.49,7-1.41,4.61,2S74,93.92,73.88,94c-1.16.9-1.49,2.26-2.25,3.43l-2.42,3.7a31.22,31.22,0,0,1-3,4.53l13.41-14S88.14,83.13,91,84.13,82.57,98,82.57,98l-8.72,11.83a2.94,2.94,0,0,1,.36-.34A157.28,157.28,0,0,0,85.48,98.1l2.36-2.76s2.47-2.76,2.85,0-3.42,9.52-4.3,11.25S80,114.84,79,118.36s-3.3,15-7.47,17.76l-4.16,2.78c-2.32,7.5-4,15.2-6.71,22.56-1.08,2.86-1.92,7.42-4.71,9.14-3.09,1.9-8.63,1.33-11.92.41A12.89,12.89,0,0,1,35.19,161.92Z"/><path class="cls-4" d="M214.79,171a14.75,14.75,0,0,0,.72-2.78c.33-2.16-.94-3.84-1.78-5.8L208.84,151l-6.27-14.65c.24-3,.49-6,.73-9l1.23-15.07c.07-.77.13-1.53.19-2.3a8.31,8.31,0,0,0,.07-.86c.05-2.42-2.37-4.7-3.71-6.5l-4.81-6.48c-.47-.62-.84-1.33-1.37-1.9A8.31,8.31,0,0,0,193.21,93c-1.06-.7-2.17-1.33-3.25-2-2.41-1.46-4.83-2.94-7.35-4.2a10,10,0,0,0-1.38-.62c-2.3-.72-1.9,5,1.6,7.48s8,4.44,9.89,8.28,4.2,8.28,4.2,8.28L189,101l-1.27-1.48A31,31,0,0,0,183,95.41c-2.31-1.78-4.65-3.52-7.05-5.18-5.4-3.75-6.62-1.84-4.54,1.57s11,11.51,11.18,11.63c1,.94,1.25,2.27,1.9,3.44s1.37,2.46,2.05,3.69a29.91,29.91,0,0,0,2.52,4.54l-11.84-14.35s-7.49-8.74-10.27-8S174,106.61,174,106.61l7.5,11.91a2.74,2.74,0,0,0-.32-.36,147.28,147.28,0,0,1-10-11.66l-2.07-2.8s-2.16-2.81-2.71-.25,2.6,9.33,3.31,11,5.5,8.37,6.26,11.81,2.11,14.53,5.89,17.48l3.78,2.95c1.69,7.32,2.72,14.79,4.84,22,.83,2.81,1.32,7.22,3.86,9,2.82,2,8.14,1.88,11.35,1.23A12.37,12.37,0,0,0,214.79,171Z"/><path class="cls-9" d="M96.1,77.32c-1.66-6.19-2.16-12.52-2.54-18.89-.11-1.75-2.85-1.77-2.74,0,.39,6.62.91,13.2,2.64,19.62a1.37,1.37,0,0,0,2.64-.73Z"/><path class="cls-4" d="M30.05,240.84a17.38,17.38,0,0,1-13.73-.08c-27.65-11.62-.71-42.44,7-58.59q8.92-18.64,17.87-37.28c0,.09,13,5.89,13.83,6.49,7.42,5.35,3.72,14.3,2.06,23.25a231.23,231.23,0,0,1-17.48,54.56c-1.81,3.91-3.9,7.9-7.41,10.39A13,13,0,0,1,30.05,240.84Z"/><path class="cls-3" d="M165.39,81.91c-1.79,9.79-4.35,24.63-5.78,24.54-6.08,1.61-9.63,6.07-14.85,10a26.94,26.94,0,0,1-35.2-2.22c-4.56-4.59-7.39-9.46-13.17-11.81-1.42-.09-1.7-15.11-2-25a126.48,126.48,0,0,1,27.07-9.79,33.58,33.58,0,0,1,18.58,1.17A123,123,0,0,1,165.39,81.91Z"/></svg>