<svg id="Layer_1" data-name="Layer 1" xmlns="http://www.w3.org/2000/svg" xmlns:xlink="http://www.w3.org/1999/xlink" viewBox="0 0 243.74 227.09"><defs><style>.cls-1{fill:url(#linear-gradient);}.cls-2{fill:#f1c9a7;}.cls-3{fill:#f6e0cf;}.cls-4{fill:#fff;}</style><linearGradient id="linear-gradient" x1="2.73" y1="113.06" x2="220.29" y2="113.06" gradientTransform="translate(112.6 -45.74) rotate(45)" gradientUnits="userSpaceOnUse"><stop offset="0" stop-color="#eacc8f"/><stop offset="0.19" stop-color="#ddbe7c"/><stop offset="0.46" stop-color="#ceae68"/><stop offset="0.74" stop-color="#c5a55b"/><stop offset="1" stop-color="#c2a257"/></linearGradient></defs><circle class="cls-1" cx="111.51" cy="113.06" r="108.78" transform="translate(-47.28 111.96) rotate(-45)"/><path class="cls-2" d="M38.23,67.17a140.46,140.46,0,0,0-19.14,6.19c-.89.35-1.28,1.72-1.16,2.67a4.19,4.19,0,0,0,1.41,2.41c3.61,3.38,9.26,3,14.13,2.14q6.9-1.18,13.69-2.93c4.67-1.2,8.59-.51,13.36.15q14.71,2,29.22,5.32c-22.24-3.41-45.12-2.42-67.26,1.6-2.33.42-5.14,1.36-5.53,3.7a4,4,0,0,0,2.47,4,11.72,11.72,0,0,0,4.93.81l25.18.51c12.39.25,25,5.27,37.35,5.73C67.09,98,46.76,96.22,27,97.2c-1.55.08-3.29.26-4.26,1.46a3.72,3.72,0,0,0-.27,3.8c1.27,2.84,4.65,4,7.68,4.65,8.53,1.91,17.28,2.63,26,3.34l28.67,2.34c-11.72-1-22.77-.43-32.09,7.83A4.87,4.87,0,0,0,50.94,123c-.46,2.13,1.83,3.87,4,4.34,6.66,1.48,13.07-3.27,19.86-4,3.81-.4,7.37.7,11.11,1,3.14.27,6.22.1,9.36.67,6.6,1.21,12.81,3.93,19.12,6.1,5.64,1.93,11.69,3.39,17.68,3,5.26-.38,9.51-2.93,14.31-4.77,9-3.47,15.93-.41,24.8,2.41q14.13,4.49,28,9.8a17.12,17.12,0,0,0,4.87,1.33c8.29.54,17.86-8,21.06-15,4.88-10.69,5.59-25.35-2-34.93a5.27,5.27,0,0,0-1.67-1.52A5.73,5.73,0,0,0,219.3,91c-9.87-.92-19.79-.75-29.68-1.3s-19.22-2.59-28.92-3.9a7,7,0,0,1-2.18-.54,7.08,7.08,0,0,1-1.78-1.45C149.53,76.51,143,69.37,134.11,64,117.93,54.32,100.26,50.24,82,46.27c-1.49-.33-3.25-.58-4.35.47a3.92,3.92,0,0,0-.77,3.56c1.53,8.81,10.59,10.84,17.65,13.46,1.67.62,3.77,1.44,4.39,3.26-2.76-.43-5.79.2-8.52-.11l-3.66-.41c-2.45-.26-4.9-.52-7.35-.74-4.89-.45-9.8-.8-14.71-.91A106.79,106.79,0,0,0,38.23,67.17Z"/><path class="cls-3" d="M153.77,170.79c-5-.64-10-1.07-14.89-1.67L112.78,166a32.54,32.54,0,0,1-5.56-1c-3.33-1-6.52-2.78-9.64-4.28s-6.64-2.88-10-4.27c-9-3.72-15.4-11.16-22.78-17.37a12.88,12.88,0,0,1-3.5-3.9c-.59-1.22-.69-2.86.31-3.76a3.79,3.79,0,0,1,2.76-.67c6.9.39,12.5,7,17.56,11.2l1.94.62,9.52,3.1,4.62,1.5a12.25,12.25,0,0,0,2,.57c.47.07,1.09.21,1.38,0,.11-.09.48-1.4.7-1.3-3.17-1.48-6.3-3.06-9.45-4.59L84.79,138a20.53,20.53,0,0,1-3.62-1.76c-.18-.15-6.73-5.29-21.22-17.63-2.56-2.18-9.6-7.27-9.5-11.28.15-6.36,8.37-1.13,10.61.28,3.34,2.1,6.59,4.35,9.81,6.63q6.7,4.72,13.25,9.64l8.35,3.53L100.9,131l2.94,1.24c.45.19,1.73.87,2.11.69a.52.52,0,0,0,.21-.25,2.75,2.75,0,0,1,.72-1c-3-2-6.61-3.52-9.85-5.23l-11.65-6.16c-5.93-3.92-11.7-8.13-17.22-12.61-4-3.23-8.17-6.66-11.3-10.78-1.38-1.8-2.26-3.53-.64-5.52,2-2.49,4.27-1,6.55.2,2.94,1.5,5.82,3.13,8.69,4.77q6,3.41,11.84,7L112.66,117l.43-1.74S93.91,103,75.67,93.32c-3.21-1.7-16.88-7.19-14.61-12.48,2.53-5.86,25.2,5.59,29.6,7.61L93,89.7l15.66,8.53,7.33,4a14.91,14.91,0,0,0,2.62,1.13,13.75,13.75,0,0,1,2.29,1c.24.14,2,.62,2,.64-4.08-5.37-10.86-7.59-15.07-12.74a12.73,12.73,0,0,1-2.18-11.42,3.19,3.19,0,0,1,2.15-2.29c2.08-.48,5.32,3.09,6.93,4.14,2.78,1.82,5.68,3.46,8.62,5,5.51,3,11.18,5.64,16.57,8.83a42.39,42.39,0,0,1,7.37,5.23A54,54,0,0,1,153.4,109c3.13,4.13,5.72,8.65,8.67,12.91,2.5,3.6,4,7.73,6.91,11.06s7.34,5.23,11.14,7.35q18.69,10.4,37.67,20.29c6.32,3.29,14,4.73,19,9.75,3.13,3.09,4,17.26-3.28,26.8-7.77,10.25-19,14.94-25.74,12.64C199.62,207,195.4,197.75,189,192c-4.07-3.69-8.24-7.23-12.48-10.68-3.51-2.85-6.49-6.55-10.69-8.44C162.41,171.31,157.45,171.26,153.77,170.79Z"/><circle class="cls-4" cx="128.84" cy="34.37" r="15.25"/><circle class="cls-4" cx="145.74" cy="52.06" r="11.17" transform="translate(5.88 118.3) rotate(-45)"/><circle class="cls-4" cx="166.49" cy="116.78" r="12.54" transform="translate(11.78 248.76) rotate(-75.52)"/><circle class="cls-4" cx="147.83" cy="99.49" r="9.09" transform="translate(-18.79 162.66) rotate(-54.7)"/></svg>