<svg id="Layer_1" data-name="Layer 1" xmlns="http://www.w3.org/2000/svg" xmlns:xlink="http://www.w3.org/1999/xlink" viewBox="0 0 225.25 253.18"><defs><style>.cls-1{fill:url(#linear-gradient);}.cls-2{fill:#004856;}.cls-3{fill:#fcddca;}.cls-4{fill:#fff;}.cls-5{fill:#fbdbc8;}.cls-6{fill:#fce0d0;}</style><linearGradient id="linear-gradient" x1="2.67" y1="130.1" x2="219.96" y2="130.1" gradientUnits="userSpaceOnUse"><stop offset="0" stop-color="#eacc8f"/><stop offset="0.19" stop-color="#ddbe7c"/><stop offset="0.46" stop-color="#ceae68"/><stop offset="0.74" stop-color="#c5a55b"/><stop offset="1" stop-color="#c2a257"/></linearGradient></defs><circle class="cls-1" cx="111.32" cy="130.1" r="108.65"/><path class="cls-2" d="M150.25,21.86C129.13-4.35,96.36,1,79.07,26.19A142.74,142.74,0,0,1,51.15,56.63c-23.06,18.59-28.87,61.42,22.54,69.79a256.13,256.13,0,0,1,30.47,6.89c19.18,5.59,46.13,7.07,51.86-22.61,2.08-10.8,3.9-21.64,6.87-32.23C168.35,59,171.63,32.11,150.25,21.86Z"/><path class="cls-3" d="M57.47,233.56c3.36-5.63,4.68-12.13,5.92-18.42l4.29-21.78c1.73-8.79,3.29-18.68-1.14-25-2.93-4.17-7.89-5.83-12.62-7.32-5.18-1.63-11.73-2.85-16.15,2-2.58,2.81-3.5,6.8-4.29,10.5q-3.15,15-6.32,29.91c-2,9.56-4,19.65-1.47,28.16C29.67,244.83,48.81,248.1,57.47,233.56Z"/><path class="cls-4" d="M69.23,193.74a3.22,3.22,0,0,1-1.3.29c-7,.25-14.09.67-21.14.73-6.36.06-16,1.88-22.3,1.59q1.53-15.58,3.08-31.17c.35-3.46,3.15-9,4.2-12.33C34.35,144.66,42,140,48.42,133.68c9.92-9.86,24.84,2,26.44,12.73,1.3,8.69-1.82,19.44-2.63,28.15C71.89,178.2,74,191.58,69.23,193.74Z"/><path class="cls-4" d="M63.74,227.63l-5.1-50.12c-1.39-13.71-1.72-29-5.51-42.19C50.36,126,81.29,121,86.82,119.46c9.41-2.69,18.9-5.39,28.65-6.16,20.81-1.63,41.26,5.61,60.34,14.09,1.89.84,3.93,1.84,4.81,3.72a8.82,8.82,0,0,1,.39,4.57c-2.13,22.54-4.2,44.93-6.61,67.46-.55,5.12-2.08,39.1-10.78,38.87l-96.41-.78Z"/><path class="cls-3" d="M102.75,113.13c-3.47,5-10.69,5.91-6.24,13.93,1.76,3.16,5,5.27,8.35,6.56a26.82,26.82,0,0,0,28.79-7v0c4.45-5-5-10.9-7.1-15.7-3.09-7.19-2-15.84-3.33-23.42-1-6-2.37-14-8.86-9.53-4,2.77-5.22,12.81-6.29,17.09-1.53,6.1-1.61,12.69-5.27,18Z"/><path class="cls-5" d="M161.72,58c3.13-13.43-11.54-23.87-27.68-27.54-16.09-3.83-33.86-.94-37,12.49,0,0-13.09,38.82,3.56,65.5a22.41,22.41,0,0,0,13,9.76,22.46,22.46,0,0,0,16-3C156.32,98.6,161.72,58,161.72,58Z"/><path class="cls-5" d="M84.17,62.36c4.39-8.72,11.67-.64,11.67-.64l-2.23,22C87.44,83.48,78.93,72.78,84.17,62.36Z"/><path class="cls-6" d="M213.85,209.47c.38-5.82-1.21-11.49-2.78-17l-5.43-18.95c-2.19-7.66-5-16.1-11-19.3-4-2.11-8.6-1.41-12.94-.68-4.75.81-10.42,2.5-12,8.09-.9,3.26,0,6.79.86,10q3.56,13.11,7.12,26.21c2.27,8.37,4.77,17.16,10.23,22.85C196.44,229.63,212.89,224.47,213.85,209.47Z"/><path class="cls-4" d="M177.71,184.38a2.49,2.49,0,0,0,1.13-.15c5.59-2,11.27-3.89,16.8-6.08,5-2,10.4-2.32,15.24-4.59q-7.27-13.37-14.56-26.71a56,56,0,0,0-5.38-8.59c-5.21-6.45-12.93-10.26-20.4-13.86-11.59-5.61-18.63,9.67-15.69,19.73,2.37,8.13,9,16.69,13,24.17C169.57,171.43,173.15,184,177.71,184.38Z"/><path class="cls-6" d="M159.45,144.68c.29-2.37,13.43-8.81,15.89-9.8,4.21-1.69,30.3,53.86,33.55,59.72,1.63,2.92,3.25,6,3.33,9.38.19,8.38-10.91,13.15-18.4,13.79-10.95.94-10.92-4.48-13.61-12.34l-8.46-24.75Z"/><path class="cls-6" d="M184,151.38a12.78,12.78,0,0,0,.45-2.59c.14-2-1.14-3.43-2-5.15l-5.33-10-6.83-12.88q0-4.14,0-8.28V96.52c0-.26,0-.53,0-.79-.13-2.2-2.51-4.1-3.87-5.65l-4.89-5.54a19.6,19.6,0,0,0-1.39-1.63,7.84,7.84,0,0,0-1.63-1c-1-.56-2.08-1-3.12-1.57-2.31-1.14-4.63-2.31-7-3.28a10.17,10.17,0,0,0-1.31-.46c-2.15-.49-1.36,4.65,2,6.7s7.61,3.45,9.66,6.81,4.45,7.23,4.45,7.23l-7.89-7.79L154,88.35a28.57,28.57,0,0,0-4.67-3.42c-2.24-1.45-4.51-2.87-6.82-4.21-5.22-3-6.19-1.18-4,1.77s10.95,9.67,11.08,9.77c1,.78,1.31,2,2,3l2.14,3.21a28,28,0,0,0,2.64,4l-11.88-12.2s-7.5-7.4-10-6.5,7.48,12.08,7.48,12.08l7.75,10.29a2.27,2.27,0,0,0-.32-.3,135,135,0,0,1-10-9.89c-.7-.8-1.39-1.6-2.09-2.39,0,0-2.19-2.4-2.5,0s3.08,8.3,3.86,9.81,5.64,7.21,6.6,10.29,3,13.07,6.69,15.48l3.67,2.41c2.1,6.54,3.6,13.27,6.08,19.69,1,2.5,1.74,6.48,4.2,8,2.73,1.64,7.58,1.1,10.46.28A11.27,11.27,0,0,0,184,151.38Z"/><path class="cls-4" d="M181.94,83.54a76.1,76.1,0,0,1-11.31-5.39c-1-.64-1.85,1.09-.82,1.72a76.57,76.57,0,0,0,11.31,5.39c1.14.46,2-1.26.82-1.72Z"/><path class="cls-4" d="M180.78,73.66a36.28,36.28,0,0,1-7.66-1.21c-1.2-.26-1.54,1.61-.34,1.88a38.88,38.88,0,0,0,8.16,1.23c1.23,0,1.06-1.9-.16-1.9Z"/><path class="cls-4" d="M180.2,62.22a83.92,83.92,0,0,1-10,3.73c-1.17.35-.51,2.13.66,1.79a87.52,87.52,0,0,0,10-3.73c1.12-.49.47-2.28-.66-1.79Z"/><path class="cls-3" d="M38,247.89a15.72,15.72,0,0,1-10.13-7.18C13.39,217.8,49.33,209,63.43,201.1L96,182.84c-.08,0,6.58,11.08,6.89,12,2.73,7.79-4.65,12.48-10.52,18.23a208.57,208.57,0,0,1-41.23,31.21c-3.37,2-7,3.81-10.88,3.84A11.38,11.38,0,0,1,38,247.89Z"/><path class="cls-3" d="M68.25,201.08a13,13,0,0,1,1-2.5c1-1.81,2.87-2.36,4.6-3.35L84,189.41,97,182l4.54-7.19q3.78-6,7.57-12c.39-.61.77-1.22,1.15-1.83.15-.23.28-.47.44-.69,1.32-1.84,4.43-2.19,6.46-2.79l7.28-2.14a19.11,19.11,0,0,1,2.11-.66,7.88,7.88,0,0,1,1.94.06c1.19.08,2.38.23,3.57.35,2.64.26,5.29.51,7.9,1a9.08,9.08,0,0,1,1.39.33c2.14.74-1.36,4.78-5.42,4.71s-8.51-1.17-12.12.63-7.84,3.85-7.84,3.85l11.13-2.44,1.78-.4a29.39,29.39,0,0,1,5.93-.41c2.75,0,5.5,0,8.24.08,6.19.23,6,2.36,2.54,3.74s-14.82,2.41-15,2.43c-1.32.12-2.23,1-3.38,1.51l-3.63,1.61a28,28,0,0,1-4.45,2l17-4.1s10.58-2.33,12.24-.19-13.12,6.4-13.12,6.4l-12.37,4.71a2.14,2.14,0,0,1,.44-.08,141.15,141.15,0,0,0,14.09-3.14l3.13-.94s3.22-.88,2.19,1.35-7.22,5.53-8.73,6.42-8.86,3.18-11.38,5.33-9.78,9.72-14.29,9.8l-4.51.08c-5.4,4.54-10.4,9.57-16.06,13.8-2.21,1.64-5.07,4.68-8,4.62-3.27-.06-7.19-3.19-9.24-5.48A11.57,11.57,0,0,1,68.25,201.08Z"/><path class="cls-2" d="M149,29.65S133.73,69.7,93.35,64.74C74.8,35.09,130.45,0,149,29.65Z"/></svg>