<svg xmlns="http://www.w3.org/2000/svg" width="30" height="29.999" viewBox="0 0 30 29.999"><defs><style>.a{fill:#fff;}</style></defs><g transform="translate(0 0)"><path class="a" d="M608.841,219.029a15,15,0,1,1,15-15A15.017,15.017,0,0,1,608.841,219.029Zm0-28.862A13.862,13.862,0,1,0,622.7,204.03,13.878,13.878,0,0,0,608.841,190.167Z" transform="translate(-593.841 -189.03)"/></g><g transform="translate(11.009 6.354)"><path class="a" d="M610.123,214.6H613.6v-8.719h2.429l.259-2.919H613.6V201.3c0-.688.138-.961.8-.961h1.884v-3.03h-2.411c-2.591,0-3.759,1.141-3.759,3.325v2.328h-1.811v2.956h1.811Z" transform="translate(-608.312 -197.307)"/></g></svg>