<svg xmlns="http://www.w3.org/2000/svg" width="30" height="29.999" viewBox="0 0 30 29.999"><defs><style>.a{fill:#fff;}</style></defs><g transform="translate(0 0)"><path class="a" d="M664.576,219.029a15,15,0,1,1,15-15A15.016,15.016,0,0,1,664.576,219.029Zm0-28.862a13.862,13.862,0,1,0,13.863,13.862A13.877,13.877,0,0,0,664.576,190.167Z" transform="translate(-649.576 -189.03)"/></g><g transform="translate(7.157 7.157)"><path class="a" d="M666.764,199.789c2.094,0,2.342.008,3.169.046a4.331,4.331,0,0,1,1.456.27,2.592,2.592,0,0,1,1.488,1.488,4.346,4.346,0,0,1,.271,1.457c.038.827.046,1.075.046,3.169s-.008,2.342-.046,3.169a4.346,4.346,0,0,1-.271,1.457,2.592,2.592,0,0,1-1.488,1.488,4.345,4.345,0,0,1-1.456.271c-.828.038-1.075.045-3.169.045s-2.342-.008-3.169-.045a4.35,4.35,0,0,1-1.457-.271,2.6,2.6,0,0,1-1.488-1.488,4.331,4.331,0,0,1-.27-1.457c-.038-.827-.046-1.075-.046-3.169s.008-2.342.046-3.169a4.331,4.331,0,0,1,.27-1.457,2.6,2.6,0,0,1,1.488-1.488,4.337,4.337,0,0,1,1.457-.27c.827-.038,1.075-.046,3.169-.046m0-1.413c-2.13,0-2.4.009-3.233.047a5.781,5.781,0,0,0-1.9.365,4.01,4.01,0,0,0-2.293,2.294,5.742,5.742,0,0,0-.365,1.9c-.038.837-.047,1.1-.047,3.233s.009,2.4.047,3.233a5.742,5.742,0,0,0,.365,1.9,4.011,4.011,0,0,0,2.293,2.294,5.762,5.762,0,0,0,1.9.365c.837.038,1.1.047,3.233.047s2.4-.008,3.233-.047a5.762,5.762,0,0,0,1.9-.365,4.015,4.015,0,0,0,2.294-2.294,5.762,5.762,0,0,0,.365-1.9c.038-.837.047-1.1.047-3.233s-.009-2.4-.047-3.233a5.762,5.762,0,0,0-.365-1.9,4.015,4.015,0,0,0-2.294-2.294,5.781,5.781,0,0,0-1.9-.365c-.837-.038-1.1-.047-3.233-.047" transform="translate(-658.922 -198.376)"/><g transform="translate(3.815 3.815)"><path class="a" d="M668.025,203.452a4.027,4.027,0,1,0,4.027,4.027,4.027,4.027,0,0,0-4.027-4.027m0,6.641a2.614,2.614,0,1,1,2.614-2.614,2.614,2.614,0,0,1-2.614,2.614" transform="translate(-663.998 -203.452)"/></g><g transform="translate(11.088 2.715)"><path class="a" d="M675.556,202.929a.941.941,0,1,1-.941-.941.94.94,0,0,1,.941.941" transform="translate(-673.674 -201.988)"/></g></g></svg>