<svg xmlns="http://www.w3.org/2000/svg" width="135" height="72" viewBox="0 0 135 72"><defs><style>.a{fill:#fff;}</style></defs><path class="a" d="M27.959,26.887V64.769A11.983,11.983,0,0,1,24.4,73.458a12.55,12.55,0,0,1-3.927,2.674,11.8,11.8,0,0,1-4.743.965,11.526,11.526,0,0,1-4.705-.965,12.884,12.884,0,0,1-6.558-6.572,11.756,11.756,0,0,1-.963-4.79V34.017h7.558v30.01A5.679,5.679,0,0,0,12.4,68.185a4.52,4.52,0,0,0,3.334,1.337,4.52,4.52,0,0,0,3.335-1.337A5.679,5.679,0,0,0,20.4,64.027V26.887ZM60.9,12.635A12.884,12.884,0,0,0,54.34,6.062,11.526,11.526,0,0,0,49.635,5.1h0v7.575h0a4.52,4.52,0,0,1,3.334,1.337A5.679,5.679,0,0,1,54.3,18.167V42.61a5.679,5.679,0,0,1-1.334,4.159,4.828,4.828,0,0,1-6.669,0,5.679,5.679,0,0,1-1.334-4.159V19.758H37.408V69.663h7.558V54.73a11.531,11.531,0,0,0,4.668.95,11.8,11.8,0,0,0,4.743-.965A12.556,12.556,0,0,0,58.3,52.041a11.983,11.983,0,0,0,3.557-8.689V17.425A11.756,11.756,0,0,0,60.9,12.635ZM84.431,46.386a7.713,7.713,0,0,1-5.672,2.2c-5.551,0-7.711-3.5-7.731-7.343-.021-3.642,2.422-7.506,7.731-7.506a7.559,7.559,0,0,1,5.471,2.266l-2.463,2.427A4.155,4.155,0,0,0,78.759,37.2a3.745,3.745,0,0,0-3.775,4.067c.02,1.841.989,3.925,3.775,3.925a4.884,4.884,0,0,0,3.331-1.436ZM99.61,45.9H93.292l-.929,2.326H88.124l6.338-14.162H98.5l6.318,14.162h-4.28Zm-3.149-7.87-1.817,4.512h3.613Zm25.381,10.2h-4.4l-3.291-4.593h-1.393v4.593h-4V34.065h6.9c3.613,0,5.491,2.327,5.491,4.876,0,1.74-.606,3.217-2.988,4.269l3.674,4.775Zm-9.084-10.965v3.4H115.7a1.483,1.483,0,0,0,1.514-1.639,1.594,1.594,0,0,0-1.555-1.76Zm25.748,10.965H127.2V34.065h11.3v3.359h-7.368v2.023h3.887V42.7h-3.887v2.144h7.368Z" transform="translate(-3.506 -5.097)"/></svg>