<svg xmlns="http://www.w3.org/2000/svg" width="30" height="30" viewBox="0 0 30 30"><defs><style>.a{fill:#fff;}</style></defs><g transform="translate(0 0)"><path class="a" d="M553.737,272.955a15,15,0,1,1,15-15A15.017,15.017,0,0,1,553.737,272.955Zm0-28.863A13.863,13.863,0,1,0,567.6,257.955,13.878,13.878,0,0,0,553.737,244.092Z" transform="translate(-538.737 -242.955)"/></g><g transform="translate(8.237 7.016)"><g transform="translate(0.284 4.782)"><rect class="a" width="2.96" height="9.563"/></g><path class="a" d="M551.26,255.661a1.765,1.765,0,1,0-1.75-1.766A1.758,1.758,0,0,0,551.26,255.661Z" transform="translate(-549.51 -252.131)"/><g transform="translate(5.137 4.489)"><path class="a" d="M559.185,262.939c0-1.344.619-2.145,1.8-2.145,1.089,0,1.612.769,1.612,2.145v5.021h2.946V261.9c0-2.561-1.452-3.8-3.48-3.8a3.333,3.333,0,0,0-2.882,1.581V258.4h-2.84v9.563h2.84Z" transform="translate(-556.345 -258.104)"/></g></g></svg>